<svg width="93" height="55" viewBox="0 0 93 55" fill="none" xmlns="http://www.w3.org/2000/svg">
<path d="M22.8574 36.0384L29.4254 19.5098H33.8889L40.4399 36.0384H36.3159L32.6839 26.1991C32.6161 26.0298 32.5142 25.7249 32.3785 25.2677C32.2427 24.8104 32.0899 24.3363 31.9542 23.8282C31.8014 23.3202 31.7166 22.8968 31.6657 22.575C31.6147 22.9137 31.5129 23.3202 31.3771 23.8282C31.2414 24.3363 31.1056 24.8104 30.9698 25.2677C30.834 25.7249 30.7322 26.0298 30.6813 26.216L27.0324 36.0553H22.8574V36.0384Z" fill="#E4E6D9"/>
<path d="M51.9308 36.2591H40.8145V19.7305H51.9308V22.6094H44.9046V26.2335H51.4386V29.1125H44.9046V33.3801H51.9308V36.2591Z" fill="#E4E6D9"/>
<path d="M61.8207 36.0371H57.7305V22.4382H52.4863V19.5254H67.0649V22.4382H61.8207V36.0371Z" fill="#E4E6D9"/>
<path d="M84.5976 27.7563C84.5976 29.0264 84.4109 30.1949 84.0375 31.228C83.6642 32.2779 83.1041 33.1755 82.3573 33.9206C81.6106 34.6658 80.6602 35.2585 79.5061 35.648C78.3521 36.0545 76.9943 36.2577 75.416 36.2577C73.8376 36.2577 72.4799 36.0545 71.3258 35.648C70.1718 35.2416 69.2214 34.6658 68.4746 33.9206C67.7279 33.1755 67.1678 32.261 66.7944 31.228C66.4211 30.178 66.2344 29.0095 66.2344 27.7393C66.2344 26.0289 66.5568 24.5386 67.2187 23.2685C67.8806 21.9984 68.8819 21.0161 70.2397 20.3049C71.5974 19.6105 73.3285 19.2549 75.433 19.2549C77.5205 19.2549 79.2515 19.6105 80.5923 20.3049C81.95 20.9992 82.9513 21.9984 83.5963 23.2685C84.2751 24.5386 84.5976 26.0458 84.5976 27.7563ZM70.5282 27.7563C70.5282 28.9079 70.6979 29.907 71.0373 30.7368C71.3768 31.5667 71.9029 32.2102 72.6326 32.6505C73.3624 33.0908 74.2789 33.3279 75.433 33.3279C76.587 33.3279 77.5374 33.1078 78.2502 32.6505C78.98 32.2102 79.5061 31.5667 79.8286 30.7368C80.151 29.907 80.3208 28.9079 80.3208 27.7563C80.3208 26.0289 79.9474 24.6572 79.1837 23.658C78.4199 22.6588 77.181 22.1677 75.4499 22.1677C74.2959 22.1677 73.3624 22.3879 72.6326 22.8451C71.9029 23.2854 71.3768 23.929 71.0373 24.7588C70.6809 25.6055 70.5282 26.5878 70.5282 27.7563Z" fill="#E4E6D9"/>
<path d="M85.2295 41.8286C83.719 40.4738 78.5597 36.5787 72.6196 39.881C72.5857 39.898 62.25 46.4349 54.2564 42.3366C54.2395 42.3197 54.2225 42.3536 54.2395 42.3705C55.2408 43.1664 62.0464 48.1115 72.1953 42.1334C74.164 40.9818 76.4043 40.2705 78.7294 40.2197C80.7151 40.1689 83.0232 40.5415 85.1616 41.9132C85.2295 41.9302 85.2804 41.8624 85.2295 41.8286Z" fill="#E4E6D9"/>
<path d="M38.3708 44.3855C38.9818 43.9622 45.6516 39.5591 51.405 43.7759C51.405 43.7759 58.8215 49.1104 67.6128 45.4016C67.6298 45.4016 67.6467 45.4186 67.6298 45.4186C66.9679 45.8589 62.8438 48.433 57.0395 47.7895C54.5447 47.5185 52.2026 46.5702 50.183 45.1815C48.2313 43.8267 44.1072 41.93 38.3708 44.3855Z" fill="#E4E6D9"/>
<path d="M20.3289 43.4035C21.0926 43.8269 27.6945 46.4179 33.346 42.4382C33.346 42.4382 41.2718 36.3585 49.9612 40.931C49.9782 40.9479 49.9782 40.9818 49.9442 40.9648C49.1805 40.7955 45.6504 40.152 41.5603 40.9479C41.5603 40.9479 38.2678 41.7608 34.4152 43.9454C34.4152 43.9454 25.6579 49.9235 20.2949 43.4204C20.2949 43.4204 20.3119 43.3865 20.3289 43.4035Z" fill="#E4E6D9"/>
<path d="M32.1049 49.9082C32.5801 49.9082 32.9535 50.0437 33.225 50.3146C33.5135 50.5856 33.6493 50.992 33.6493 51.534C33.6493 51.8896 33.5814 52.1944 33.4626 52.4315C33.3268 52.6686 33.1571 52.8549 32.9195 52.9734C32.6819 53.092 32.4104 53.1597 32.0879 53.1597C31.8843 53.1597 31.7145 53.1428 31.5618 53.092C31.4091 53.0412 31.2733 52.9904 31.1715 52.9226C31.0696 52.8549 30.9678 52.7702 30.8999 52.6855H30.866C30.866 52.7533 30.8829 52.8549 30.8999 52.9565C30.9169 53.0581 30.9169 53.1597 30.9169 53.2275V54.5145H30.3398V49.9759H30.815L30.8829 50.4332H30.9169C30.9848 50.3316 31.0866 50.2469 31.1884 50.1792C31.2903 50.0945 31.426 50.0437 31.5788 49.9929C31.7145 49.9251 31.9012 49.9082 32.1049 49.9082ZM32.0031 50.3146C31.7485 50.3146 31.5279 50.3485 31.3751 50.4332C31.2224 50.5179 31.1036 50.6364 31.0187 50.8058C30.9338 50.9751 30.8999 51.1783 30.8999 51.4324V51.517C30.8999 51.788 30.9338 52.0081 31.0017 52.1944C31.0696 52.3807 31.1884 52.5162 31.3581 52.6178C31.5279 52.7194 31.7315 52.7533 32.0031 52.7533C32.2407 52.7533 32.4273 52.7025 32.5971 52.6009C32.7498 52.4993 32.8686 52.3468 32.9535 52.1606C33.0383 51.9743 33.0723 51.7541 33.0723 51.517C33.0723 51.1445 32.9874 50.8566 32.8177 50.6364C32.631 50.4163 32.3595 50.3146 32.0031 50.3146Z" fill="#E4E6D9"/>
<path d="M38.2159 49.9082C38.5384 49.9082 38.8099 49.959 39.0476 50.0776C39.2852 50.1961 39.4549 50.3654 39.5737 50.5687C39.6925 50.7888 39.7604 51.0259 39.7604 51.3138V51.6017H37.1467C37.1467 51.9743 37.2655 52.2452 37.4692 52.4485C37.6898 52.6347 37.9783 52.7364 38.3687 52.7364C38.6063 52.7364 38.8269 52.7194 38.9966 52.6856C39.1833 52.6517 39.37 52.6009 39.5737 52.5331V52.9565C39.387 53.0243 39.2003 53.0751 39.0136 53.1089C38.8269 53.1428 38.6063 53.1597 38.3517 53.1597C37.9953 53.1597 37.6729 53.092 37.4013 52.9734C37.1298 52.8549 36.9261 52.6686 36.7734 52.4315C36.6206 52.1944 36.5527 51.9065 36.5527 51.5509C36.5527 51.2122 36.6206 50.9243 36.7564 50.6703C36.8922 50.4163 37.0789 50.23 37.3334 50.0945C37.588 49.959 37.8765 49.9082 38.2159 49.9082ZM38.2159 50.2977C37.9105 50.2977 37.6729 50.3824 37.4862 50.5517C37.2995 50.7211 37.1977 50.9582 37.1637 51.2461H39.1664C39.1664 51.0598 39.1324 50.8904 39.0645 50.755C38.9966 50.6195 38.8948 50.5009 38.759 50.4163C38.6063 50.3316 38.4366 50.2977 38.2159 50.2977Z" fill="#E4E6D9"/>
<path d="M44.3561 53.1594C44.0167 53.1594 43.7112 53.1086 43.4566 52.99C43.202 52.8715 42.9984 52.7022 42.8456 52.4651C42.6929 52.228 42.625 51.9231 42.625 51.5675C42.625 51.1949 42.7099 50.8732 42.8456 50.6361C42.9984 50.399 43.202 50.2127 43.4736 50.0942C43.7451 49.9756 44.0506 49.9248 44.39 49.9248C44.5767 49.9248 44.7634 49.9417 44.9331 49.9756C45.1028 50.0095 45.2556 50.0434 45.3574 50.0942L45.1877 50.5006C45.0689 50.4667 44.9331 50.4329 44.7974 50.399C44.6446 50.3651 44.5088 50.3482 44.3731 50.3482C44.1185 50.3482 43.8979 50.399 43.7282 50.4837C43.5584 50.5853 43.4227 50.7207 43.3378 50.8901C43.2529 51.0764 43.202 51.2965 43.202 51.5675C43.202 51.8215 43.236 52.0417 43.3208 52.211C43.4057 52.3973 43.5245 52.5328 43.6942 52.6175C43.8639 52.7191 44.0676 52.753 44.3222 52.753C44.5258 52.753 44.6955 52.736 44.8652 52.7022C45.018 52.6683 45.1707 52.6175 45.3065 52.5836V53.007C45.1877 53.0578 45.035 53.1086 44.8822 53.1255C44.7464 53.1425 44.5767 53.1594 44.3561 53.1594Z" fill="#E4E6D9"/>
<path d="M50.9077 50.3654H49.6687V53.1089H49.1087V50.3654H47.8867V49.959H50.9246V50.3654H50.9077Z" fill="#E4E6D9"/>
<path d="M57.0364 51.534C57.0364 51.788 57.0025 52.0251 56.9176 52.2283C56.8328 52.4315 56.714 52.6009 56.5612 52.7364C56.4085 52.8718 56.2218 52.9904 56.0181 53.0581C55.7975 53.1259 55.5599 53.1767 55.2883 53.1767C55.0338 53.1767 54.7962 53.1428 54.5925 53.0581C54.3889 52.9904 54.2022 52.8718 54.0494 52.7364C53.8967 52.6009 53.7779 52.4315 53.693 52.2283C53.6082 52.0251 53.5742 51.788 53.5742 51.534C53.5742 51.1953 53.6421 50.8904 53.7779 50.6533C53.9136 50.4163 54.1173 50.23 54.3719 50.0945C54.6265 49.959 54.9489 49.9082 55.3053 49.9082C55.6447 49.9082 55.9502 49.9759 56.2048 50.0945C56.4594 50.23 56.663 50.3993 56.8158 50.6533C56.9685 50.9074 57.0364 51.1953 57.0364 51.534ZM54.1682 51.534C54.1682 51.788 54.2022 52.0081 54.287 52.1944C54.3719 52.3807 54.4907 52.5162 54.6604 52.6178C54.8301 52.7194 55.0507 52.7702 55.3053 52.7702C55.5599 52.7702 55.7805 52.7194 55.9502 52.6178C56.12 52.5162 56.2387 52.3807 56.3236 52.1944C56.4085 52.0081 56.4424 51.788 56.4424 51.534C56.4424 51.2799 56.4085 51.0598 56.3236 50.8904C56.2387 50.7041 56.12 50.5687 55.9502 50.4671C55.7805 50.3654 55.5599 50.3146 55.3053 50.3146C54.915 50.3146 54.6265 50.4163 54.4398 50.6364C54.2531 50.8396 54.1682 51.1445 54.1682 51.534Z" fill="#E4E6D9"/>
<path d="M61.9213 49.9082C62.3965 49.9082 62.7699 50.0437 63.0414 50.3146C63.3299 50.5856 63.4657 50.992 63.4657 51.534C63.4657 51.8896 63.3978 52.1944 63.279 52.4315C63.1432 52.6686 62.9735 52.8549 62.7359 52.9734C62.4983 53.092 62.2268 53.1597 61.9043 53.1597C61.7007 53.1597 61.5309 53.1428 61.3782 53.092C61.2255 53.0412 61.0897 52.9904 60.9879 52.9226C60.886 52.8549 60.7842 52.7702 60.7163 52.6855H60.6824C60.6824 52.7533 60.6993 52.8549 60.7163 52.9565C60.7333 53.0581 60.7333 53.1597 60.7333 53.2275V54.5145H60.1562V49.9759H60.6315L60.6993 50.4332H60.7333C60.8012 50.3316 60.903 50.2469 61.0048 50.1792C61.1067 50.0945 61.2424 50.0437 61.3952 49.9929C61.5309 49.9251 61.7007 49.9082 61.9213 49.9082ZM61.8195 50.3146C61.5649 50.3146 61.3443 50.3485 61.1915 50.4332C61.0388 50.5179 60.92 50.6364 60.8351 50.8058C60.7672 50.9751 60.7163 51.1783 60.7163 51.4324V51.517C60.7163 51.788 60.7503 52.0081 60.8181 52.1944C60.886 52.3807 61.0048 52.5162 61.1745 52.6178C61.3443 52.7194 61.5479 52.7533 61.8195 52.7533C62.0571 52.7533 62.2438 52.7025 62.4135 52.6009C62.5662 52.4993 62.685 52.3468 62.7699 52.1606C62.8547 51.9743 62.8887 51.7541 62.8887 51.517C62.8887 51.1445 62.8038 50.8566 62.6341 50.6364C62.4474 50.4163 62.1759 50.3146 61.8195 50.3146Z" fill="#E4E6D9"/>
<path d="M67.999 49.9082C68.4573 49.9082 68.7797 49.9929 69.0004 50.1622C69.221 50.3316 69.3228 50.6025 69.3228 50.9751V53.1089H68.8985L68.7797 52.6517H68.7458C68.644 52.7702 68.5252 52.8549 68.4233 52.9396C68.3045 53.0243 68.1688 53.0751 68.033 53.1089C67.8802 53.1428 67.6936 53.1597 67.4729 53.1597C67.2353 53.1597 67.0317 53.1259 66.8619 53.0581C66.6922 52.9904 66.5395 52.8888 66.4377 52.7533C66.3358 52.6178 66.2849 52.4485 66.2849 52.2452C66.2849 51.9404 66.4377 51.6864 66.7262 51.517C67.0317 51.3477 67.4729 51.263 68.0839 51.2461L68.7288 51.2291V51.0428C68.7288 50.7719 68.6609 50.5856 68.5252 50.4671C68.3894 50.3654 68.1857 50.2977 67.9312 50.2977C67.7275 50.2977 67.5408 50.3146 67.3711 50.3654C67.2014 50.4163 67.0147 50.4671 66.8619 50.5348L66.6922 50.1792C66.8619 50.1114 67.0656 50.0437 67.2862 49.9929C67.5238 49.9421 67.7445 49.9082 67.999 49.9082ZM68.7628 51.5509L68.1857 51.5678C67.7105 51.5848 67.3881 51.6525 67.1844 51.7541C66.9977 51.8727 66.8959 52.0251 66.8959 52.2283C66.8959 52.4146 66.9638 52.5331 67.0995 52.6347C67.2353 52.7364 67.405 52.7702 67.6257 52.7702C67.9651 52.7702 68.2366 52.6856 68.4573 52.5331C68.6779 52.3807 68.7797 52.1436 68.7797 51.8388V51.5509H68.7628Z" fill="#E4E6D9"/>
<path d="M73.1923 49.959V51.2799H75.2967V49.959H75.8738V53.092H75.2967V51.6694H73.1923V53.092H72.6152V49.959H73.1923Z" fill="#E4E6D9"/>
<path d="M87.0598 22.0671C84.6838 17.5454 81.3064 13.735 77.0296 10.7036C71.6666 6.91019 64.8949 4.38686 56.8674 3.15061C56.7147 3.11674 41.576 0.678088 29.3056 9.51818C27.8121 10.602 26.4205 11.7875 25.1306 13.1084L25.2664 13.2947C26.5562 11.9738 27.9309 10.7883 29.4244 9.70447C41.61 0.932115 56.6637 3.35383 56.8165 3.37076C74.9082 6.13117 83.1224 15.1068 86.8392 22.1517C90.1147 28.35 90.5559 34.1926 90.6068 36.1909H90.8275C90.7935 34.1756 90.3523 28.3161 87.0598 22.0671Z" fill="#E4E6D9"/>
<path d="M89.2328 21.5929C86.7549 16.7833 83.1909 12.702 78.6255 9.46741C72.9231 5.43687 65.6423 2.72726 57.0038 1.40632C56.851 1.38939 40.6262 -1.23554 27.7109 8.07873C26.8114 8.72226 25.9628 9.4166 25.1482 10.1279V11.0424C26.0816 10.1787 27.066 9.38273 28.1182 8.62065C40.8129 -0.524271 56.7492 2.03292 56.9189 2.06679C76.1986 5.03042 84.7862 14.4632 88.6048 21.8808C91.7615 28.0113 92.2537 33.7861 92.3216 36.2078H93.0004C92.9495 33.7184 92.4404 27.825 89.2328 21.5929Z" fill="#E4E6D9"/>
<path d="M25.0641 20.0346C24.8265 20.1192 24.5889 20.2039 24.4022 20.3563C23.7912 20.7966 23.1463 21.0676 22.4165 21.0507C21.534 21.0337 20.6684 20.9999 19.7859 20.9491C19.6162 20.9491 19.4125 20.9829 19.3956 20.6781C19.3956 20.3394 19.2768 19.8991 19.6671 19.7636C20.1253 19.5943 20.5496 19.3741 20.9909 19.1709C22.145 18.612 23.0444 17.6467 24.0458 16.8338C24.1815 16.7322 24.5549 16.4274 24.4361 16.3597C24.2494 16.2919 23.7912 16.7322 23.5366 16.9693C22.2807 18.1548 21.1267 18.5612 19.4804 18.3749C19.4295 18.3749 19.3786 18.3241 19.3786 18.2564C19.3786 17.579 19.3786 16.9185 19.3956 16.258C19.3956 16.1564 19.5144 16.0379 19.6162 15.9702C20.0405 15.7331 20.4648 15.496 20.8891 15.2758C21.6188 14.8863 22.3316 14.4799 23.1802 14.4291C23.4009 14.4121 23.7912 14.3783 23.8082 14.2428C23.7912 14.175 23.7403 14.1242 23.6554 14.1242C23.5706 14.1242 23.4687 14.1412 23.3839 14.1412C22.9426 14.192 22.4844 14.3444 22.0431 14.2936C21.2285 14.2258 20.4308 14.0565 19.6332 13.921C19.5313 13.9041 19.3786 13.7855 19.3786 13.7178C19.3786 13.5654 19.3786 13.3113 19.5144 13.2605C20.4478 12.8202 21.2624 12.0243 22.3826 12.1936C22.4844 12.2106 22.5862 12.1767 22.688 12.1428C22.9087 12.0582 23.0275 11.8549 22.9087 11.6009C22.5692 11.567 22.3486 11.7872 22.0771 11.838C21.8055 11.8888 21.517 11.9227 21.2455 11.9057C21.0248 11.8888 20.1593 11.4485 19.8029 11.313C20.2441 10.9574 20.7703 10.4324 21.0248 10.2122C21.1267 10.1276 21.2455 10.026 21.3643 9.95821C21.4831 9.89047 21.6188 9.82273 21.7376 9.77192C21.8055 9.73805 21.8734 9.70418 21.9413 9.67031C21.9583 9.65338 21.9752 9.63644 21.9583 9.60257L21.9413 9.5687C21.9243 9.55177 21.9074 9.53483 21.8904 9.55177C21.0248 9.78886 20.2781 9.31468 19.4635 9.21307C19.4295 9.21307 19.4125 9.16226 19.4295 9.14533C20.0065 8.33245 20.923 8.29857 21.6188 7.82439C21.6528 7.79052 21.6358 7.72278 21.5849 7.73972C20.8721 7.89213 20.2272 8.31551 19.4125 8.19696C19.3956 8.19696 19.3786 8.16309 19.3786 8.14616C19.4804 7.35021 19.5823 6.5712 19.7011 5.75832C19.7011 5.72445 19.6841 5.70751 19.6501 5.70751C19.5992 5.70751 19.5483 5.77525 19.5483 5.79219C19.0561 6.41878 18.5979 6.99458 18.1397 7.63811C17.919 7.94294 18.0548 8.2647 18.4282 8.36631C18.6828 8.43406 18.9373 8.45099 19.1919 8.46793C19.2089 8.46793 19.2258 8.48486 19.2258 8.50179C19.2768 9.07759 19.2089 9.12839 18.6828 9.12839C18.3773 9.12839 18.0888 9.09452 17.7833 9.12839C17.4099 9.1792 17.0195 9.19613 16.6292 9.34855C16.4765 9.41629 16.3237 9.5179 16.3577 9.67031C16.4086 9.87353 16.9007 9.83966 17.2572 9.77192C17.7663 9.68725 18.2585 9.5179 18.7506 9.38242C18.9373 9.33161 19.1919 9.19613 19.2089 9.5687C19.2428 10.1276 19.2089 10.7034 19.2089 11.2961C19.2089 11.3299 19.1919 11.3469 19.158 11.3469C17.97 11.1606 16.8498 11.1098 15.7976 11.7025C15.7637 11.7195 15.7637 11.7703 15.7976 11.7872C16.9686 12.6678 18.1397 11.9735 19.2768 11.6687C19.3786 11.6348 19.5313 11.5501 19.7011 11.4316C19.9387 11.4993 20.7872 11.9396 21.1945 12.092C21.2455 12.109 21.2455 12.1767 21.1945 12.2106C20.6175 12.5154 20.1084 12.7864 19.5823 13.0573C19.4804 13.1081 19.3107 13.0912 19.2258 13.1589C18.8864 13.4468 18.53 13.7009 18.0548 13.6501C17.4438 13.5823 16.9007 13.4976 16.2728 13.4807C16.0522 13.4638 15.7297 13.5654 15.543 13.6839C15.4242 13.7517 15.2715 13.8363 15.3394 14.1242C15.3563 14.2258 15.543 14.3613 15.6618 14.3952C15.8485 14.446 16.0522 14.446 16.2389 14.4121C16.765 14.3105 17.2911 14.2428 17.7833 14.0396C18.2754 13.8363 18.6997 13.921 19.2089 14.0904C19.2089 14.2258 19.2089 14.3613 19.2089 14.4968C19.1919 14.9879 19.3447 15.6315 19.124 15.9532C18.8694 16.3089 18.2754 16.4443 17.8002 16.5798C16.8668 16.8677 15.9164 17.1217 14.983 16.5459C14.8132 16.4443 14.6096 16.4105 14.4229 16.4105C14.3041 16.4105 14.2023 16.4274 14.0665 16.4782C13.9647 16.5121 13.9477 16.6476 14.0326 16.7322C14.4059 17.054 14.8302 17.0201 15.2206 17.0709C15.5261 17.1048 15.8485 17.1725 16.1201 17.325C16.9177 17.7653 17.6305 18.2903 18.564 18.4257C18.8694 18.4765 18.9204 18.4765 19.124 18.5273C19.1749 18.5443 19.2089 18.5781 19.2089 18.6459C19.2089 18.9677 19.2258 19.2725 19.1919 19.5434C19.1749 19.662 19.0901 19.8313 18.9882 19.8821C18.2754 20.2039 17.5796 20.5765 16.765 20.4749C16.3407 20.4241 15.9164 20.3563 15.4921 20.3225C15.1527 20.3055 14.7963 20.3225 14.4568 20.3225C14.4229 20.3225 14.4059 20.3394 14.4059 20.3733C14.389 20.4241 14.4059 20.4918 14.4568 20.5257C14.5926 20.6273 14.7114 20.7628 14.8472 20.7797C15.4751 20.966 16.0352 20.8983 16.6122 20.8136C17.2062 20.7289 17.7833 20.695 18.3773 20.8474C19.2428 21.0845 19.2598 21.0845 19.2768 22.0498C19.2937 23.1675 19.2937 23.1675 18.2415 23.2861C17.953 23.32 16.748 23.4724 16.0861 23.2014C15.7127 23.0321 15.3224 22.8458 14.9151 22.6764C14.8302 22.6426 14.7284 22.6934 14.7114 22.795C14.6435 23.2692 14.8642 23.7095 15.4073 23.9635C16.0182 24.2514 16.6631 24.4377 17.325 24.607C17.919 24.7764 18.53 24.8611 19.141 25.0135C19.2428 25.0304 19.3956 25.1659 19.4125 25.2506C19.4465 25.6739 19.4295 26.0973 19.4295 26.5207C18.547 26.5207 17.6645 26.5207 16.7819 26.5207C16.2558 26.5207 15.8146 26.3344 15.4412 25.8941C15.3224 25.7417 15.1527 25.6401 14.966 25.5046C14.8981 25.4538 14.8132 25.5046 14.8132 25.5893C14.8302 25.9957 14.949 26.2328 15.2715 26.3852C15.7297 26.6054 16.171 26.8425 16.6292 27.0457C16.8838 27.1642 17.1383 27.232 17.4099 27.2828C17.8681 27.3674 18.3264 27.4182 18.7846 27.5029C19.4974 27.6215 19.4974 27.6215 19.5144 28.4005C19.5144 28.8408 19.5144 30.1617 19.5144 30.602V30.7036V37.2744C18.3773 37.2406 17.376 36.8341 16.3746 36.4785C15.0339 36.0043 13.7101 35.4963 12.2675 35.5809C11.6905 35.6148 11.0965 35.5979 10.4855 35.5979C10.3158 35.5979 10.18 35.4624 10.197 35.293L10.214 34.785L10.5025 34.8358C10.6552 34.8697 10.774 34.7511 10.757 34.5987C10.7231 34.3447 10.6892 34.1245 10.6722 33.8874C10.4346 31.0254 10.4516 28.1634 10.5873 25.3014C10.6043 25.0135 10.5873 24.8272 10.2818 24.7425C10.0612 24.7256 10.0782 24.5901 10.0782 24.5054C10.0442 24.2345 10.0612 23.9635 10.0612 23.6417C10.4516 23.7095 10.808 23.7264 11.1304 23.8449C11.7753 24.082 12.3693 24.0312 12.9803 23.7433C13.5404 23.4724 14.0326 23.0829 14.5587 22.5579C12.9803 22.7272 11.5038 22.8797 10.0442 22.4393V21.5248C11.5377 22.3885 12.6748 21.2878 13.9138 20.8305C13.8628 20.7797 13.8119 20.7628 13.778 20.7628C12.7597 20.9829 11.7414 20.9321 10.7401 20.6781C9.90847 20.4749 9.8915 20.4749 9.99333 19.5604C9.99333 19.5434 10.0103 19.5434 10.0103 19.5096C10.8928 19.7975 11.7414 19.6281 12.5391 19.1709C12.556 19.1539 12.8615 18.9677 13.0143 18.866C13.2349 18.7306 13.3876 18.5443 13.4555 18.3241C13.4895 18.2225 13.4046 18.1378 13.3028 18.1717C11.8772 18.629 11.7075 18.612 10.18 18.0362C10.0952 18.0024 9.95939 17.9346 9.95939 17.8669C9.94241 17.5282 9.94241 17.1895 9.94241 16.8508C11.3001 16.8 12.4033 16.258 12.8445 15.4621C12.8785 15.3944 12.8276 15.3097 12.7597 15.3097C12.7257 15.3097 12.6918 15.3097 12.6409 15.3097C11.8263 15.3097 11.0116 15.3266 10.197 15.3097C10.0782 15.3097 9.8915 15.1742 9.87453 15.0895C9.84058 14.6662 9.85756 14.2428 9.85756 13.8363C10.163 13.7517 10.4516 13.7178 10.7061 13.5992C10.9268 13.4807 11.1304 13.4638 11.368 13.5315C12.0469 13.7009 12.7767 13.3283 13.1331 12.6509C13.167 12.5831 13.1161 12.4985 13.0482 12.5154C12.3863 12.5831 11.7244 12.6339 11.1644 13.0404C11.0795 13.1081 10.9437 13.1759 10.8589 13.142C10.0612 12.9049 9.6539 12.1259 9.84059 11.2622C11.402 11.4316 12.556 11.2622 13.0821 10.6695C13.167 10.5848 13.0991 10.4324 12.9973 10.4324C12.8276 10.4324 12.6748 10.4324 12.5051 10.4155C11.7414 10.3816 10.9607 10.3816 10.197 10.3816C9.8915 10.3816 9.72178 10.263 9.75573 9.9074C9.7727 9.75499 9.75573 9.58564 9.75573 9.39935C10.6382 9.38242 11.4529 9.31468 12.1996 8.90824C12.3354 8.8405 12.2845 8.62034 12.1317 8.62034C11.368 8.58647 10.6382 8.43406 9.94241 8.12922C9.72178 8.02761 9.67087 7.85826 9.72178 7.67198C9.75573 7.55343 9.85756 7.41795 9.95939 7.38408C10.2818 7.2486 10.6213 7.13006 10.9607 7.06232C11.4359 6.96071 11.8941 6.87603 12.3693 6.79136C12.4881 6.77442 12.4881 6.622 12.3863 6.58813C11.5208 6.31717 10.5873 6.35104 9.70481 6.06315C9.61996 5.11479 9.61996 5.23333 10.7061 5.04705C10.8928 5.01318 11.0625 4.96237 11.2323 4.91157C11.4359 4.84383 11.6396 4.75915 11.6226 4.60673C11.6226 4.52206 11.5547 4.47125 11.4868 4.45432C11.1644 4.40351 10.8589 4.35271 10.5364 4.33577C9.45024 4.2511 9.61996 4.40351 9.61996 3.25193C9.61996 3.235 9.61996 3.21806 9.63693 3.20113C9.6539 3.16726 9.67087 3.15032 9.70481 3.15032C10.1461 2.99791 10.5534 2.77775 10.8758 2.42211C10.9946 2.28663 10.9098 2.08341 10.757 2.04954C10.4685 2.01567 9.92544 1.94793 9.73876 1.91406C9.70481 1.91406 9.67087 1.88019 9.68784 1.84632C9.80664 0.830218 9.92544 0.660868 10.0442 0.152817C10.0782 0.0342713 9.94241 -0.050404 9.85756 0.0342712C9.33144 0.576193 8.80532 1.06731 8.61863 1.88019C8.60166 1.9818 8.66955 2.06648 8.75441 2.06648H9.55207C9.5351 2.42211 9.50115 2.72694 9.48418 3.03177C8.97504 3.15032 8.58469 3.01484 8.21132 2.74388C8.12646 2.67614 8.00766 2.77775 8.0416 2.87936C8.10949 3.06564 8.17737 3.21806 8.29617 3.33661C8.61863 3.67531 9.02595 3.9124 9.33144 4.26803C9.46721 4.43738 9.48418 4.75915 9.50115 5.01318C9.50115 5.09785 9.33144 5.23333 9.22961 5.2672C8.78835 5.43655 8.36406 5.48736 7.9228 5.40268C7.78703 5.36881 7.66823 5.30107 7.5664 5.18253C7.51548 5.09785 7.4476 5.03011 7.37971 4.96237C7.26091 4.86076 7.12514 4.79302 6.97239 4.77608C6.90451 4.77608 6.87056 4.84383 6.90451 4.89463C7.02331 5.08092 7.15908 5.25027 7.34577 5.30107C7.87189 5.57203 8.73743 5.96154 9.26355 6.2325C9.36538 6.2833 9.5351 6.33411 9.5351 6.38491C9.56904 6.68974 9.58601 7.01151 9.5351 7.29941C9.50115 7.41795 9.22961 7.48569 9.05989 7.51956C8.89018 7.55343 8.70349 7.55343 8.55075 7.48569C8.14343 7.31634 7.75309 7.11312 7.34577 6.9099C7.15908 6.82523 6.95542 6.74055 6.76874 6.65588C6.63296 6.65588 6.54811 6.68975 6.58205 6.87603C6.66691 7.04538 6.75176 7.21473 6.87056 7.33328C7.3288 7.77359 7.87189 8.01068 8.5168 7.84133C8.89018 7.73972 9.56904 8.02761 9.58601 8.28164C9.61996 8.58647 9.58601 8.8913 9.58601 9.23C8.73744 9.12839 7.78703 9.61951 7.14211 8.62034C7.12514 8.58647 7.05725 8.60341 7.05725 8.63728C6.98937 9.26387 7.22697 9.68725 7.804 9.94127C8.38103 10.1953 9.00898 10.3477 9.63693 10.5679C9.63693 10.6017 9.6539 10.6864 9.6539 10.7542C9.6539 10.8558 9.63693 10.9404 9.63693 11.0082C8.73743 11.3808 7.87189 11.3808 6.95542 10.9912C6.83662 10.9404 6.73479 11.0759 6.80268 11.1945C7.12514 11.6856 7.5664 11.8719 8.07554 11.9735C8.49983 12.0582 8.94109 12.1428 9.36538 12.2614C9.48418 12.2952 9.63693 12.4307 9.6539 12.5323C9.68784 12.871 9.67087 13.2097 9.67087 13.5654C8.92412 13.5146 8.19435 13.7178 7.53245 13.2605C7.17605 13.0235 6.83662 12.7525 6.48022 12.4985C6.41233 12.4985 6.37839 12.5323 6.37839 12.5662C6.4293 12.8033 6.46325 13.0573 6.58205 13.2267C6.80268 13.5315 7.05725 13.8194 7.36274 14.0226C8.05857 14.4799 8.77138 14.8863 9.48418 15.3266C9.58601 15.3944 9.72178 15.496 9.72178 15.5976C9.75573 15.9193 9.73876 16.258 9.73876 16.6306C8.78835 16.5629 7.88886 16.4613 7.04028 15.9193C6.98937 16.4443 7.22697 16.7661 7.53245 17.0371C8.09252 17.562 8.75441 17.8499 9.48418 18.0193C9.60298 18.0532 9.7727 18.1717 9.78967 18.2903C9.84058 18.5612 9.80664 18.8491 9.80664 19.1709C8.94109 18.8322 8.12646 18.9507 7.24394 19.1878C7.19302 19.2047 7.17605 19.2725 7.22697 19.3064C7.34577 19.408 7.43063 19.4926 7.53245 19.5434C8.17737 19.8652 8.82229 20.187 9.46721 20.4749C9.87453 20.6612 9.94242 20.695 9.84059 21.1015C9.82361 21.1353 9.78967 21.1692 9.75573 21.1692C8.75441 21.0507 7.75309 20.9491 6.75176 20.8305C6.70085 20.8305 6.70085 20.8644 6.70085 20.8983C7.34577 22.3377 8.72046 22.3039 9.87453 22.6764V23.4554C9.02595 23.4046 8.21132 23.3538 7.37971 23.303C7.31183 23.303 7.24394 23.3708 7.26091 23.4385C7.29485 23.7603 7.49851 23.9127 7.71914 23.9974C8.31315 24.2514 8.92412 24.5054 9.5351 24.6917C9.85756 24.7933 9.95939 24.9288 9.95939 25.2844C9.99333 28.2819 10.0273 31.2625 10.0612 34.26C10.0612 34.3786 10.0442 34.514 10.0442 34.6326C8.53378 34.8358 5.32615 35.2422 4.18906 36.1229C4.00237 36.2414 3.95146 35.8519 3.93449 35.6995C3.8666 35.1068 3.78174 34.514 3.76477 33.9213C3.71386 32.1431 3.69689 30.3649 3.64597 28.5868C3.64597 28.5021 3.61203 28.0787 3.59506 27.6215C4.29089 27.6892 6.12382 27.5707 6.41233 27.0626C6.4293 27.0287 6.41233 26.961 6.36142 26.9779C5.56376 27.0457 4.3418 27.1304 3.56111 27.215C3.54414 26.8763 3.5102 26.5715 3.5102 26.436C3.91752 26.5038 4.32483 26.5546 4.71518 26.6223C4.73215 26.6223 4.76609 26.6054 4.76609 26.5884V26.5546C4.76609 26.5376 4.74912 26.5038 4.73215 26.5038C4.27392 26.4191 3.81569 26.3344 3.34048 26.2328C3.32351 26.2328 3.30654 26.2159 3.30654 26.182C3.30654 26.0634 3.32351 25.9618 3.32351 25.8094C3.32351 25.7755 3.34048 25.7586 3.37443 25.7755C3.81569 25.8433 4.223 25.928 4.64729 25.9957C4.66426 25.9957 4.69821 25.9788 4.69821 25.9618V25.928C4.69821 25.911 4.68123 25.8772 4.66426 25.8772C4.32483 25.8094 3.96843 25.7078 3.629 25.6739C3.34048 25.6401 3.25563 25.5215 3.34048 25.2336C3.34048 25.2167 3.35745 25.1998 3.37443 25.1998C4.30786 25.2336 5.27524 25.4538 6.10685 24.607C6.12382 24.5732 6.12382 24.5393 6.08987 24.5224C5.9541 24.5054 5.85227 24.4715 5.75044 24.4715C5.05461 24.3869 4.35878 24.3022 3.67991 24.1837C3.56111 24.1667 3.47626 24.0651 3.35745 23.9804C3.34048 23.9635 3.34048 23.9296 3.35745 23.9127C3.44231 23.828 3.52717 23.7095 3.64597 23.6756C4.3418 23.4385 5.03764 23.1845 5.73347 23.6756C5.76741 23.6925 5.86924 23.7095 5.93713 23.6756C5.9541 23.6587 5.98804 23.5401 5.98804 23.5232C5.9541 23.4554 5.88622 23.4216 5.85227 23.4046C5.63164 23.3369 5.41101 23.2692 5.17341 23.2353C4.57941 23.1675 4.00237 23.1337 3.40837 23.0829C3.3914 23.0829 3.37443 23.0659 3.37443 23.049C3.2726 22.4563 3.28957 22.4393 3.8666 22.3885C4.01934 22.3716 4.17209 22.3716 4.32483 22.3377C4.74912 22.27 5.17341 22.2361 5.46193 22.7103C5.49587 22.7611 5.56376 22.778 5.61467 22.795C5.63164 22.795 5.64861 22.795 5.66558 22.778C5.90319 22.3377 5.80136 22.1684 5.3601 22.1006C4.69821 21.999 4.05329 21.8466 3.3914 21.7111C3.37443 21.7111 3.35745 21.6942 3.35745 21.6603V20.8136C3.35745 20.7797 3.37443 20.7628 3.40837 20.7628C4.27392 20.8474 5.03764 20.5426 5.75044 20.1023C5.78439 20.0854 5.76741 20.0176 5.73347 20.0176C5.63164 20.0176 5.52981 20.0346 5.44495 20.0346C5.27524 20.0515 5.08855 20.1192 4.91884 20.1023C4.4606 20.0684 4.01934 20.0007 3.57808 19.933C3.49323 19.916 3.37443 19.8144 3.35745 19.7297C3.32351 19.5434 3.34048 19.3572 3.34048 19.1709C3.34048 19.137 3.35745 19.1201 3.3914 19.1201C4.18906 19.1709 4.93581 19.3572 5.69953 19.0862C5.73347 19.0693 5.73347 19.0354 5.7165 19.0185C5.3601 18.2733 4.52849 18.5443 3.66294 18.7475C3.56111 18.7475 3.44231 18.7644 3.34048 18.7644C3.35745 18.4935 3.37443 18.2225 3.3914 17.9516C4.54546 18.2225 5.37707 18.0024 5.78439 17.3419C5.8353 17.2572 5.76741 17.1556 5.68256 17.1725C5.0037 17.3419 4.30786 17.5112 3.57808 17.6806C3.47625 17.6975 3.3914 17.6298 3.3914 17.5282V17.2064C3.3914 17.1048 3.44231 17.0032 3.54414 16.9693C4.15512 16.6814 4.73215 16.4105 5.30918 16.1226C5.39404 16.0887 5.37707 15.9363 5.27524 15.9363C5.17341 15.9363 5.08855 15.9363 4.98672 15.9363C4.4606 15.9532 3.9854 15.7839 3.57808 15.4621C3.49323 15.3944 3.3914 15.2419 3.3914 15.1403C3.40837 15.0387 3.54414 14.9202 3.64597 14.8863C3.81569 14.8524 4.01934 14.8355 4.18906 14.8694C4.54546 14.954 4.74912 14.9202 4.86792 14.6153C4.90187 14.5476 4.85095 14.446 4.76609 14.4629C4.54546 14.4799 4.32483 14.4968 4.12117 14.4968C3.9854 14.4968 3.83266 14.5137 3.71386 14.4629C3.32351 14.2936 3.2726 14.0057 3.42534 13.3283C4.35878 13.413 4.61335 13.4299 4.71518 13.2775C4.78306 13.1759 4.71518 13.0235 4.59638 13.0235H3.3914V12.0412C3.67991 12.0243 3.95146 11.9904 4.223 11.9735C4.32483 11.9565 4.37575 11.8211 4.30786 11.7533C4.15512 11.6009 4.01934 11.4146 3.84963 11.33C3.3914 11.1098 3.32351 10.7711 3.37443 10.2969C3.40837 9.92434 3.3914 9.53483 3.3914 9.16226C3.3914 9.04372 3.25563 8.97598 3.17077 9.07759C3.05197 9.21307 2.95014 9.33161 2.83134 9.46709C2.42402 9.70418 2.08459 10.0259 1.81304 10.4324C1.72819 10.5679 1.79607 10.7542 1.94882 10.788C2.27128 10.8558 2.54282 10.9066 2.83134 10.9574C3.2726 11.0251 3.2726 11.3638 3.22168 11.7025C3.17077 12.0582 2.88225 12.0074 2.67859 12.0074C2.44099 12.0074 2.20339 11.9396 1.96579 11.9735C1.81304 11.9904 1.71121 11.9904 1.52453 12.109C1.52453 12.1428 1.52453 12.1598 1.52453 12.1936C1.52453 12.2106 1.5415 12.2444 1.55847 12.2444C2.23733 12.2275 2.64465 12.6678 3.10288 13.1928C3.1538 13.2605 3.13682 13.3622 3.05197 13.3791C2.72951 13.4638 2.45796 13.5654 2.18642 13.5823C1.93184 13.5823 1.67727 13.5146 1.40573 13.4299C1.20207 13.396 1.10024 13.5315 1.16812 13.6501C1.28693 13.8871 1.5415 13.8702 1.72819 13.8363C2.16945 13.7517 2.52585 13.9379 2.89922 14.1581C3.1538 14.3105 3.23865 14.5476 3.11985 14.7678C3.06894 14.8694 2.76345 14.8863 2.59373 14.8694C2.0167 14.8016 1.43967 14.6831 0.862637 14.5815C0.760808 14.5645 0.692922 14.7 0.777779 14.7678C0.947495 14.9371 1.10024 15.1065 1.28693 15.2419C1.69424 15.5298 2.1355 15.4113 2.55979 15.2419C2.84831 15.1234 3.08591 15.225 3.13682 15.5129C3.20471 15.9193 3.1538 16.3258 3.1538 16.8C2.61071 16.7322 2.10156 16.7492 1.64333 16.5629C1.33784 16.4443 1.10024 16.1564 0.811722 15.9702C0.709893 15.9024 0.608064 16.0379 0.692922 16.1226C0.879609 16.3427 1.08327 16.5459 1.3039 16.6984C1.7791 17.0371 2.30522 17.325 2.79739 17.6298C2.93317 17.7314 2.79739 17.833 2.66162 17.7653C2.05065 17.5451 1.49058 17.3758 0.879609 17.1556C0.794751 17.1217 0.726865 17.2572 0.794751 17.308C1.37178 17.7991 1.94882 18.2733 2.52585 18.7644C2.57676 18.8152 2.61071 18.883 2.64465 18.9677C1.99973 19.1201 0.845665 19.0523 0.268633 18.9507C0.23469 18.9507 0.200747 18.9846 0.23469 19.0185C0.981438 20.0854 2.10156 19.8821 3.10288 20.0515C3.11985 20.0515 3.13682 20.0684 3.13682 20.1023V20.6104C3.13682 20.6442 3.11985 20.6612 3.08591 20.6612C2.20339 20.5934 1.35481 20.5087 0.489263 20.441C0.45532 20.441 0.438348 20.4579 0.438348 20.4918C0.489263 20.8305 0.760808 20.9999 1.01538 21.1184C1.62636 21.3894 2.23733 21.6265 2.86528 21.8466C3.10288 21.9313 3.17077 22.016 3.11985 22.1684C3.11985 22.1853 3.10288 22.1853 3.10288 22.2023C1.96579 22.7442 1.04932 21.9652 0.0480028 21.7619C0.0140597 21.7619 -0.0198834 21.7958 0.0140597 21.8297C0.200747 22.0668 0.591092 22.3547 0.811722 22.4055C1.59241 22.5918 2.1355 22.8627 2.84831 23.2522C2.88225 23.2692 2.93317 23.2522 2.96711 23.2692C3.03499 23.32 3.13682 23.3877 3.13682 23.4385C3.11985 23.5232 3.05197 23.6587 2.98408 23.6756C2.76345 23.7264 2.52585 23.8111 2.30522 23.7603C1.83002 23.6756 1.35481 23.5063 0.879609 23.4046C0.658978 23.3538 0.421377 23.3538 0.132861 23.3369C0.0989174 23.3369 0.0819459 23.3708 0.0989174 23.4046C0.251661 23.7603 0.404405 23.9296 0.777779 23.9804C1.28693 24.0482 1.79607 24.0312 2.30522 24.0143C2.98408 23.9804 3.20471 24.2006 3.11985 24.7425C3.11985 24.7594 3.10288 24.7764 3.08591 24.7764C2.59373 24.7764 2.11853 24.7933 1.64333 24.7764C1.20207 24.7425 0.777779 24.6748 0.285604 24.607C0.251661 24.607 0.217718 24.6578 0.251661 24.6917C0.285604 24.7256 0.319548 24.7425 0.353491 24.7594C1.20207 25.0135 1.91487 25.7078 2.86528 25.657C2.95014 25.657 3.11985 25.7755 3.13682 25.8602C3.1538 25.9957 3.10288 26.2836 3.05197 26.2836C2.50888 26.4021 2.0167 26.8086 1.40573 26.4868C1.04932 26.3005 0.658978 26.0973 0.217718 26.1989C0.200747 26.1989 0.183775 26.2159 0.183775 26.2497C0.183775 26.6054 0.353491 26.7916 0.642007 26.8594C0.845666 26.9102 1.08327 26.9441 1.28693 26.8933C1.67727 26.8255 2.0167 26.8594 2.3731 27.0795C2.57676 27.1981 2.79739 27.2828 3.01802 27.3844C3.03499 27.4013 3.06894 27.3844 3.06894 27.3674L3.08591 27.3336C3.10288 27.3166 3.08591 27.2828 3.06894 27.2828C2.79739 27.1473 2.52585 26.9949 2.20339 26.8255C2.16945 26.8086 2.16945 26.7578 2.20339 26.7408C2.52585 26.6392 2.78042 26.5715 3.06894 26.4868C3.08591 26.4868 3.11985 26.5038 3.11985 26.5207C3.13682 26.7239 3.1538 26.8933 3.17077 27.0626C3.17077 29.8908 3.17077 33.5487 3.17077 36.343C3.20471 36.343 3.22168 36.343 3.25563 36.343C3.25563 33.6334 3.25563 30.1109 3.25563 27.3166C3.2726 27.3166 3.28957 27.2997 3.28957 27.2828C3.30654 26.9949 3.32351 26.6562 3.34048 26.4699C3.34048 26.436 3.35745 26.4191 3.3914 26.436C3.40837 26.436 3.44231 26.436 3.45928 26.4529C3.42534 26.4868 3.42534 26.5376 3.42534 26.5715C3.44231 28.0279 3.5102 31.1948 3.56111 32.6512C3.61203 33.8028 3.76477 34.9374 3.88357 36.0721C3.88357 36.1398 3.91752 36.2922 4.08723 36.2583C4.08723 36.2414 4.12117 36.2245 4.13814 36.2075C4.12117 36.2245 4.1042 36.2414 4.08723 36.2583C5.75044 35.4793 8.48286 35.039 10.0782 34.785V35.4455C10.0782 35.6995 10.2988 35.9027 10.5534 35.8688C11.2153 35.818 11.8432 35.7672 12.4712 35.7842C13.167 35.8011 13.8628 35.9027 14.5417 36.0721C16.154 36.4785 17.6475 37.3252 19.3107 37.4607C19.3786 37.4607 19.735 37.5285 19.735 37.5285C19.9047 37.5793 20.0744 37.6131 20.2272 37.6809C20.329 37.7148 20.4139 37.7825 20.5157 37.8502C20.5836 37.901 20.6854 37.8333 20.6684 37.7486C20.346 35.9196 20.2611 34.1076 20.2272 32.3125C20.2272 32.2447 20.2951 29.7553 20.2951 29.7553C20.2951 29.2642 20.2951 28.79 20.2951 28.2989C20.2781 27.5876 20.2781 27.5876 19.7011 27.3844C19.7011 27.2828 19.6841 27.1642 19.6841 27.0626C19.6841 26.961 19.7011 26.8425 19.7011 26.6731C21.6019 26.7747 23.1802 26.1312 24.2834 24.3869C24.3173 24.3191 24.2834 24.2345 24.2155 24.2345C23.4348 24.2175 22.739 24.4546 22.0431 24.6748C21.3473 24.8949 20.6684 25.1489 19.9217 25.0643C19.6671 25.0304 19.5483 24.9457 19.5483 24.6578C19.5483 24.3022 19.5313 23.9296 19.4974 23.574C19.4635 23.2692 19.5653 23.1675 19.8368 23.0998C20.9569 22.795 22.094 22.4901 23.1972 22.1176C24.1137 21.8127 24.8265 21.22 25.2677 20.2717C25.3017 20.1192 25.1829 19.9838 25.0641 20.0346ZM19.3956 18.6967C19.3956 18.6628 19.4125 18.629 19.4465 18.629C20.2781 18.5443 21.0757 18.4596 21.8564 18.3749C21.8734 18.3749 21.8904 18.4088 21.8734 18.4088C21.1945 18.9677 20.346 19.2894 19.4635 19.662C19.4295 19.6789 19.3786 19.6451 19.3786 19.6112V18.6967H19.3956ZM19.3616 14.0565C20.2272 14.192 21.0418 14.3275 21.9922 14.4968C21.0588 14.9879 20.2441 15.4282 19.3786 15.8855V14.0565H19.3616ZM17.936 9.43322C17.936 9.45016 17.8681 9.50096 17.8512 9.50096C17.6475 9.55177 17.1214 9.63644 16.8838 9.65338C16.8498 9.65338 16.8329 9.63644 16.7989 9.61951C16.731 9.5687 16.765 9.45016 16.8498 9.43322L17.2232 9.36548C17.5287 9.31468 17.6305 9.29774 17.8342 9.28081C17.919 9.24694 17.9869 9.33161 17.936 9.43322ZM18.8525 11.5332C18.2076 11.9565 17.0026 12.109 16.3237 11.9057C16.171 11.8549 16.154 11.6348 16.3067 11.567C16.9007 11.3299 17.8512 11.2791 18.8355 11.4485C18.8694 11.4485 18.8864 11.4993 18.8525 11.5332ZM19.8199 8.40019C19.8538 8.40019 19.8708 8.45099 19.8368 8.48486C19.7011 8.58647 19.5823 8.68808 19.4465 8.78969C19.4125 8.80663 19.3786 8.78969 19.3786 8.75582C19.3447 8.36631 19.3786 8.34938 19.8199 8.40019ZM19.2258 8.12922C19.2258 8.2139 19.158 8.2647 19.0731 8.24777C18.7846 8.16309 18.513 8.09535 18.2245 8.01068C18.2076 8.01068 18.1906 7.97681 18.1906 7.95987C18.2585 7.60424 18.4282 7.43489 18.5979 7.21473C18.8185 6.89297 19.0561 6.58813 19.3447 6.30024C19.3786 6.26637 19.4295 6.30024 19.4125 6.33411C19.3616 6.622 19.3277 6.89297 19.2937 7.18086C19.2768 7.48569 19.2428 7.80746 19.2258 8.12922ZM19.4295 11.2622C19.3956 11.2791 19.3616 11.2622 19.3616 11.2283V9.38242C19.3616 9.34855 19.3956 9.33161 19.4125 9.33161C19.9556 9.46709 20.4817 9.58564 20.9909 9.72112C21.0757 9.73805 21.1267 9.80579 21.1436 9.89047C21.1436 9.94127 21.1267 9.99208 21.0927 10.009C21.0418 10.0429 20.9909 10.0598 20.9569 10.0937C20.6515 10.3138 19.752 11.0251 19.4295 11.2622ZM15.8825 14.2258C15.8315 14.2258 15.6958 14.192 15.6449 14.1581C15.543 14.0904 15.5261 13.9549 15.5939 13.8533C15.6449 13.7855 15.7637 13.7347 15.8146 13.7178C16.5104 13.4976 17.1214 13.5992 17.8851 13.7855C17.1723 14.1412 16.5783 14.2428 15.8825 14.2258ZM19.1749 13.8363C18.9882 13.8025 18.8355 13.7686 18.564 13.7178C18.8185 13.5823 18.9713 13.4976 19.2089 13.3791C19.1919 13.5823 19.1919 13.7009 19.1749 13.8363ZM15.1527 16.8C15.1357 16.8508 15.1018 16.8846 15.0508 16.8846C14.7793 16.8338 14.5078 16.783 14.2362 16.7322C14.2023 16.7322 14.1853 16.6984 14.2023 16.6645C14.2192 16.5798 14.2871 16.529 14.372 16.5459C14.6266 16.6137 14.8642 16.6645 15.1187 16.7322C15.1357 16.7322 15.1527 16.7661 15.1527 16.8ZM19.1919 18.2056C19.1919 18.2564 19.158 18.2903 19.107 18.2903C17.9869 18.2903 17.0705 17.7653 16.2558 17.1725C16.2219 17.1556 16.2389 17.1048 16.2728 17.0879C17.1723 16.8338 18.1227 16.5629 19.0731 16.2919C19.124 16.275 19.1919 16.3258 19.1919 16.3935V18.2056ZM16.2558 20.6273C15.6958 20.7289 15.1357 20.7289 14.6096 20.4749C14.5756 20.441 14.6096 20.3902 14.6266 20.3902C15.1697 20.4579 15.7127 20.5257 16.2558 20.5765C16.2728 20.5765 16.2728 20.6273 16.2558 20.6273ZM19.1919 20.8305C18.7846 20.7458 18.3942 20.6612 18.0039 20.5934C17.953 20.5765 17.936 20.5087 17.9869 20.4749C18.3773 20.3225 18.7506 20.17 19.1749 20.0007V20.8305H19.1919ZM19.3956 24.8102C18.53 24.6578 17.6984 24.5393 16.8838 24.3361C16.3746 24.2175 15.8825 23.9974 15.4073 23.7433C15.1187 23.5909 14.8981 23.3369 14.8642 22.9474C14.8642 22.8627 14.949 22.795 15.0169 22.8288C15.56 23.0998 15.9843 23.3877 16.5613 23.4385C17.4099 23.5909 18.6488 23.3538 19.3107 23.2522C19.3447 23.8111 19.3616 24.3361 19.3956 24.8102ZM10.0612 22.8119C11.368 22.8119 12.6409 22.8119 13.9307 22.8119C13.9307 22.8627 13.9477 22.9135 13.9477 22.9474C13.2688 23.5062 12.556 23.9974 11.6226 23.828C11.0965 23.7433 10.6043 23.5909 10.0612 23.4554C10.0612 23.2184 10.0612 22.9643 10.0612 22.8119ZM9.95939 18.1378C10.9777 18.629 11.962 18.866 13.0312 18.5612C13.0821 18.5443 13.0991 18.612 13.0652 18.6459C12.9464 18.7644 12.8276 18.866 12.7088 18.9846C12.4372 19.1539 12.1148 19.2894 11.8432 19.3402C11.4189 19.4249 10.9777 19.5096 10.5534 19.5096C10.0612 19.5096 9.95939 19.3572 9.95939 18.8322C9.95939 18.629 9.95939 18.4088 9.95939 18.1378ZM11.2832 13.1759C11.7584 12.8202 12.2845 12.7864 12.7936 12.6848C12.8445 12.6678 12.8785 12.7356 12.8445 12.7864C12.5051 13.3113 11.9451 13.4976 11.3001 13.3113C11.2323 13.2944 11.2323 13.2097 11.2832 13.1759ZM9.78967 8.33245C10.4685 8.50179 11.1474 8.67115 11.8772 8.8405C11.9281 8.85743 11.9281 8.92517 11.8772 8.94211C11.1983 9.21307 10.5194 9.31468 9.78967 9.24694V8.33245ZM9.73876 6.30024C10.3837 6.40185 11.0116 6.50346 11.6905 6.622C11.7414 6.63894 11.7584 6.72362 11.6905 6.72362C11.0116 6.92684 10.3837 7.09619 9.73876 7.28247V6.30024ZM9.48418 4.21723C9.05989 3.84466 8.68652 3.52289 8.33012 3.20113C8.2792 3.15032 8.31315 3.06565 8.38103 3.08258C8.73743 3.15032 9.09384 3.235 9.48418 3.31967V4.21723ZM9.5351 6.16476C9.17869 6.04621 8.83926 5.92767 8.49983 5.80912C8.38103 5.77525 8.398 5.58897 8.5168 5.57203C8.83926 5.52123 9.17869 5.45349 9.5351 5.40268V6.16476ZM8.33012 7.67198C7.75309 7.82439 7.10817 7.50263 6.73479 6.87603C6.71782 6.84216 6.75176 6.80829 6.78571 6.82523C7.34577 7.09619 7.82097 7.33328 8.34709 7.5873C8.38103 7.60424 8.38103 7.67198 8.33012 7.67198ZM9.63693 12.1936C8.89018 11.8211 8.02463 11.9904 7.3288 11.4993C7.27788 11.4654 7.31183 11.3638 7.37971 11.3808C8.12646 11.5332 8.87321 11.5332 9.63693 11.1945V12.1936ZM9.72178 2.10035C10.0952 2.15115 10.4176 2.20196 10.7401 2.25276C10.808 2.2697 10.8249 2.35437 10.774 2.40518C10.4855 2.72694 10.2309 2.82855 9.73876 3.01484C9.70481 3.03178 9.67087 2.99791 9.68784 2.98097C9.70481 2.59146 9.70481 2.40518 9.72178 2.10035ZM9.60298 10.263C8.70349 10.3477 7.39668 9.77192 7.29485 9.1792C7.27788 9.12839 7.3288 9.07759 7.36274 9.11146C7.82097 9.50096 8.34709 9.43322 8.85624 9.39935C9.68784 9.33161 9.72178 9.38242 9.60298 10.263ZM9.51813 1.89713C9.34841 1.89713 9.17869 1.91406 9.00898 1.91406C8.92412 1.91406 8.85624 1.84632 8.87321 1.74471C8.92412 1.38908 9.22961 0.881024 9.63693 0.542323C9.68784 0.491518 9.75573 0.542323 9.75573 0.610063C9.67087 1.03344 9.60298 1.43988 9.51813 1.89713ZM9.67087 4.45432C10.2649 4.48819 10.8249 4.53899 11.385 4.57286C11.4868 4.5898 11.5038 4.70834 11.402 4.75915C10.8589 4.8777 10.3158 4.97931 9.72178 5.11479C9.70481 4.86076 9.68784 4.67447 9.67087 4.45432ZM9.70481 15.2758C8.55075 14.717 7.41365 14.1581 6.66691 13.0065C6.64993 12.9896 6.68388 12.9557 6.70085 12.9726C7.58337 13.7009 8.60166 13.8533 9.68784 13.7009V15.2758H9.70481ZM9.78967 17.2742C9.7727 17.4774 9.78967 17.6806 9.78967 17.9346C8.72046 17.7145 7.78703 17.3758 7.21 16.3597C7.95674 16.5121 8.65258 16.6645 9.36538 16.7661C9.68784 16.8 9.82361 16.9185 9.78967 17.2742ZM9.84059 10.6017C10.8419 10.6017 11.8263 10.6017 12.7936 10.6017C12.9464 10.6017 12.8955 10.7034 12.8276 10.7711C12.6409 10.9235 12.4881 10.9574 12.0469 11.0759C11.4529 11.1437 10.8419 11.1606 10.2309 11.1606C9.7727 11.1437 9.75573 11.1098 9.84059 10.6017ZM9.80664 20.4918C9.00898 20.1192 8.24526 19.7805 7.49851 19.4249C7.43063 19.3741 7.46457 19.3233 7.49851 19.3064C8.19434 19.0693 8.90715 19.0015 9.61996 19.2894C9.70481 19.3233 9.78967 19.4588 9.78967 19.5604C9.82361 19.8483 9.80664 20.1192 9.80664 20.4918ZM9.85756 13.6501V12.5831C10.1461 12.8202 10.4176 13.0235 10.774 13.3113C10.8249 13.3452 10.808 13.4299 10.7401 13.4468C10.4346 13.5315 10.163 13.5823 9.85756 13.6501ZM6.97239 21.1523C6.90451 21.0845 6.97239 20.966 7.05725 20.9829C7.9228 21.1184 8.78835 21.237 9.6539 21.3894C9.73876 21.4063 9.85756 21.5587 9.87453 21.6603C9.90847 21.8974 9.8915 22.1514 9.8915 22.4732C8.78835 22.2192 7.70217 22.1514 6.97239 21.1523ZM9.90847 24.5393C9.90847 24.5901 9.85756 24.624 9.82361 24.607C8.99201 24.3361 8.17737 24.2006 7.49851 23.6756C7.39668 23.5571 7.46457 23.4385 7.5664 23.4385C8.29618 23.4893 9.00898 23.5401 9.73876 23.6079C9.80664 23.6079 9.90847 23.7433 9.92544 23.8111C9.90847 24.0482 9.90847 24.2683 9.90847 24.5393ZM9.92544 16.4782C9.90847 16.1734 9.90847 15.8516 9.90847 15.5129H12.5221C12.573 15.5129 12.59 15.5806 12.556 15.6145C11.8263 16.3597 11.0625 16.7661 10.1291 16.6814C10.0612 16.6814 9.92544 16.5459 9.92544 16.4782ZM10.0103 20.7797C10.9777 20.9152 11.9111 21.0507 12.8445 21.2031C12.0808 21.5926 11.3001 21.9482 10.3837 21.5757C10.0273 21.4063 9.90847 21.1523 10.0103 20.7797ZM3.49323 21.9313C3.79871 21.9482 4.1042 21.9821 4.40969 21.999C4.42666 21.999 4.44363 22.016 4.44363 22.0498V22.0837C4.44363 22.1006 4.42666 22.1176 4.40969 22.1345C4.12117 22.1684 3.96843 22.2023 3.66294 22.2023C3.629 22.2023 3.47626 22.1853 3.44231 22.1684C3.34048 22.1006 3.37443 21.9482 3.49323 21.9313ZM3.32351 20.1023C3.32351 20.0684 3.34048 20.0515 3.37443 20.0515C3.84963 20.1192 4.30786 20.17 4.76609 20.2378C4.80004 20.2378 4.81701 20.3055 4.78306 20.3225C4.3418 20.6104 3.8666 20.5934 3.35745 20.5934C3.34048 20.5934 3.30654 20.5765 3.30654 20.5426V20.1023H3.32351ZM3.69689 18.8322C3.71386 18.8322 3.73083 18.8322 3.73083 18.8152C3.96843 18.7644 4.40969 18.6628 4.59638 18.6459C4.88489 18.612 5.13947 18.6798 5.41101 18.9169C5.44495 18.9507 5.42798 19.0015 5.37707 19.0015H3.71386C3.56111 19.0015 3.5102 18.8999 3.69689 18.8322ZM3.93449 17.7822C4.37575 17.6806 4.81701 17.579 5.32615 17.4604C5.3601 17.4604 5.37707 17.4943 5.3601 17.5282C4.90187 17.9177 4.42666 17.9346 3.95146 17.8499C3.91752 17.833 3.91752 17.7991 3.93449 17.7822ZM3.34048 15.6484C3.69689 15.8008 4.05329 15.9363 4.4606 16.0887C4.57941 16.1395 4.57941 16.3089 4.4606 16.3597C4.08723 16.5121 3.73083 16.6645 3.34048 16.8338V15.6484ZM3.32351 11.3977C3.32351 11.313 3.40837 11.2791 3.47625 11.33C3.64597 11.4654 3.79871 11.584 3.95146 11.7025C4.00237 11.7364 3.9854 11.838 3.91752 11.8549C3.42534 11.9904 3.30654 11.8888 3.32351 11.3977ZM2.91619 10.8388C2.62768 10.7711 2.35613 10.7034 2.05065 10.6356C1.94882 10.6187 1.91487 10.4663 1.98276 10.3985C2.11853 10.263 2.23733 10.1276 2.35613 9.99208C2.49191 9.83966 2.61071 9.67031 2.72951 9.5179L2.81436 9.48403C2.96711 9.43322 3.11985 9.55177 3.11985 9.72112V10.6695C3.13682 10.7711 3.03499 10.8727 2.91619 10.8388ZM3.01802 12.9218C2.78042 12.7017 2.54282 12.4985 2.30522 12.2783C2.2543 12.2275 2.28825 12.1428 2.35613 12.1428H3.11985C3.11985 12.1598 3.11985 12.6339 3.11985 12.871C3.11985 12.9218 3.05197 12.9557 3.01802 12.9218ZM3.11985 14.1242C2.89922 13.9888 2.71254 13.8871 2.45796 13.7347C2.72951 13.6331 2.89922 13.5654 3.10288 13.4807V14.1242H3.11985ZM2.39008 15.0726C1.91487 15.3266 1.50756 15.2758 1.11721 14.8863C1.08327 14.8524 1.11721 14.7847 1.16812 14.7847C1.59241 14.8524 1.96579 14.9202 2.3731 14.9879C2.42402 14.9879 2.42402 15.0557 2.39008 15.0726ZM3.11985 23.1337C3.11985 23.1675 3.08591 23.1845 3.05197 23.1675C2.72951 22.9982 2.44099 22.8627 2.16945 22.7272C2.06762 22.6764 2.10156 22.524 2.20339 22.524C2.49191 22.4901 2.76345 22.4563 3.06894 22.4224C3.08591 22.4224 3.11985 22.4393 3.11985 22.4732V23.1337ZM1.67727 23.9127C1.33784 23.9635 1.01538 23.9296 0.709893 23.8111C0.743836 23.6756 0.726865 23.7264 0.777779 23.5909C0.89658 23.6248 1.01538 23.6587 1.13418 23.6925C1.32087 23.7433 1.50756 23.7941 1.69424 23.8449C1.71121 23.828 1.71121 23.8958 1.67727 23.9127ZM1.33784 26.69C0.947495 26.8425 0.642007 26.7578 0.438348 26.4021C0.421377 26.3683 0.45532 26.3175 0.489263 26.3344C0.760808 26.4191 1.03235 26.5038 1.33784 26.6054C1.37178 26.6223 1.37178 26.6731 1.33784 26.69ZM2.11853 17.0201C2.05065 16.9693 2.08459 16.8508 2.16945 16.8508C2.47493 16.8846 2.78042 16.9016 3.13682 16.9355V17.6975C2.76345 17.4435 2.44099 17.2233 2.11853 17.0201ZM1.47361 17.8161C1.40573 17.7653 1.43967 17.6298 1.5415 17.6467C2.06762 17.7483 2.59373 17.8669 3.1538 17.9685C3.1538 18.104 3.13682 18.2903 3.13682 18.4596C3.13682 18.4935 3.13682 18.6459 3.13682 18.8491C2.62768 18.5273 1.88093 18.1209 1.47361 17.8161ZM3.08591 21.7111C2.2543 21.5418 1.52453 21.22 0.845666 20.7289C0.811722 20.695 0.828694 20.6442 0.879609 20.6442C1.60939 20.695 2.33916 20.7458 3.10288 20.7966C3.11985 20.7966 3.13682 20.8136 3.13682 20.8474V21.6603C3.13682 21.6942 3.11985 21.7111 3.08591 21.7111ZM3.11985 25.4538C3.11985 25.4707 3.10288 25.4876 3.08591 25.4876C2.54282 25.4538 1.99973 25.4538 1.45664 25.0473C1.4227 25.0304 1.43967 24.9627 1.47361 24.9627C1.98276 24.9627 2.40705 24.9457 2.83134 24.9627C3.10288 24.9796 3.22168 25.132 3.11985 25.4538ZM3.10288 19.8821C2.28825 19.7636 1.49058 19.8483 0.726865 19.3741C0.692922 19.3572 0.709893 19.2894 0.743836 19.2894C1.45664 19.3233 2.33916 19.137 2.67859 19.0523C2.69556 19.0523 2.71254 19.0693 2.74648 19.0693C2.74648 19.0693 3.00105 19.1539 3.11985 19.2047C3.11985 19.5096 3.11985 19.7805 3.1538 19.8483C3.1538 19.8652 3.13682 19.8821 3.10288 19.8821ZM3.34048 24.3361C3.34048 24.3191 3.35745 24.3022 3.3914 24.3022C4.12117 24.4038 4.85095 24.5054 5.58073 24.5901C5.5977 24.6917 5.5977 24.6917 5.61467 24.7933C5.41101 24.8949 5.19038 24.9965 4.96975 25.0304C4.59638 25.0812 4.223 25.0473 3.84963 25.0304C3.28957 25.0135 3.25563 24.9796 3.34048 24.3361ZM3.57808 27.3505C4.15512 27.2997 5.17341 27.1981 5.7165 27.1473C5.75044 27.1473 5.76741 27.1642 5.78439 27.1981V27.2489C5.78439 27.2828 5.76741 27.3166 5.73347 27.3166C5.19038 27.4013 4.20603 27.4352 3.59506 27.5029C3.57808 27.4521 3.57808 27.4013 3.57808 27.3505ZM10.18 24.9457C10.4006 24.9288 10.4346 25.0812 10.4346 25.3014C10.4346 27.8247 10.4176 30.3311 10.4346 32.8544C10.4346 33.3963 10.5194 33.9552 10.5873 34.531C10.5873 34.5987 10.5364 34.6664 10.4516 34.6495L10.2309 34.6156C10.18 31.4149 10.1461 28.2142 10.0952 25.0304C10.0952 24.9965 10.1291 24.9457 10.18 24.9457ZM19.6671 29.7383V27.6045C19.7859 27.6215 19.8877 27.6215 19.9896 27.6384C20.0744 27.6384 20.1253 27.7061 20.1253 27.7908V29.7383C20.1253 29.7383 20.1084 31.3641 20.1084 32.3633C20.1084 34.0568 20.1932 35.7503 20.4478 37.4438C20.4648 37.4946 20.3969 37.5454 20.346 37.5285C19.5144 37.3252 19.718 37.3422 19.6841 37.0712C19.6841 35.2422 19.6841 32.8713 19.6841 31.0423C19.6841 30.9069 19.6671 30.7544 19.6501 30.619C19.6671 30.619 19.6671 29.7383 19.6671 29.7383ZM19.6332 25.1828C20.7363 25.403 21.7207 24.8611 22.7559 24.607C23.1463 24.5054 23.5366 24.4377 23.9949 24.353C24.0458 24.3361 24.0627 24.4038 24.0458 24.4377C22.9256 26.0973 21.4321 26.5884 19.6501 26.4868V25.1828H19.6332ZM19.4804 26.69V27.4013C18.4961 27.2828 17.5287 27.2828 16.6292 26.7917C16.5783 26.7747 16.5953 26.69 16.6462 26.69H19.4804ZM25.0301 20.3394C24.8434 20.7966 24.5549 21.1353 24.1815 21.3724C23.7063 21.6603 23.1972 21.9313 22.6711 22.1006C21.6358 22.4393 20.5836 22.6934 19.4635 23.0151V21.2031C20.4308 21.2031 21.4152 21.1523 22.3826 21.22C23.3669 21.2708 24.1476 20.712 24.9622 20.2547C24.9962 20.2208 25.0471 20.2886 25.0301 20.3394Z" fill="#E4E6D9"/>
</svg>
