<svg width="135" height="80" viewBox="0 0 135 80" fill="none" xmlns="http://www.w3.org/2000/svg">
<path d="M33.0965 52.5174L42.6067 28.5846H49.0697L58.5553 52.5174H52.5838L47.3249 38.2705C47.2266 38.0253 47.0792 37.5839 46.8826 36.9219C46.686 36.2598 46.4648 35.5732 46.2683 34.8376C46.0471 34.1019 45.9242 33.4889 45.8505 33.023C45.7768 33.5134 45.6293 34.1019 45.4327 34.8376C45.2361 35.5732 45.0395 36.2598 44.843 36.9219C44.6464 37.5839 44.4989 38.0253 44.4252 38.2951L39.1418 52.5419H33.0965V52.5174Z" fill="#E4E6D9"/>
<path d="M75.1911 52.8368H59.0951V28.904H75.1911V33.0726H65.0174V38.3202H74.4784V42.4888H65.0174V48.6682H75.1911V52.8368Z" fill="#E4E6D9"/>
<path d="M89.516 52.5171H83.5937V32.8266H76.0003V28.6089H97.1094V32.8266H89.516V52.5171Z" fill="#E4E6D9"/>
<path d="M122.495 40.5264C122.495 42.3655 122.225 44.0574 121.684 45.5532C121.144 47.0735 120.333 48.3732 119.251 49.4521C118.17 50.531 116.794 51.3893 115.123 51.9533C113.452 52.5418 111.486 52.836 109.201 52.836C106.915 52.836 104.949 52.5418 103.278 51.9533C101.607 51.3648 100.231 50.531 99.1498 49.4521C98.0685 48.3732 97.2576 47.049 96.7169 45.5532C96.1763 44.0329 95.906 42.3409 95.906 40.5018C95.906 38.0252 96.3729 35.8673 97.3313 34.0282C98.2897 32.1891 99.7396 30.7669 101.705 29.737C103.671 28.7316 106.178 28.2167 109.225 28.2167C112.248 28.2167 114.754 28.7316 116.696 29.737C118.662 30.7424 120.111 32.1891 121.045 34.0282C122.028 35.8673 122.495 38.0497 122.495 40.5264ZM102.123 40.5264C102.123 42.1938 102.369 43.6406 102.86 44.8421C103.352 46.0436 104.114 46.9755 105.17 47.613C106.227 48.2506 107.554 48.5939 109.225 48.5939C110.896 48.5939 112.272 48.2751 113.304 47.613C114.361 46.9755 115.123 46.0436 115.59 44.8421C116.057 43.6406 116.303 42.1938 116.303 40.5264C116.303 38.0252 115.762 36.039 114.656 34.5922C113.55 33.1455 111.756 32.4344 109.25 32.4344C107.579 32.4344 106.227 32.7531 105.17 33.4152C104.114 34.0528 103.352 34.9846 102.86 36.1861C102.344 37.4122 102.123 38.8344 102.123 40.5264Z" fill="#E4E6D9"/>
<path d="M123.405 60.9029C121.218 58.9412 113.748 53.3013 105.147 58.083C105.098 58.1075 90.132 67.5727 78.5576 61.6386C78.533 61.614 78.5084 61.6631 78.533 61.6876C79.9829 62.8401 89.8371 70.0003 104.532 61.3443C107.383 59.6769 110.627 58.647 113.993 58.5734C116.869 58.4998 120.211 59.0393 123.307 61.0255C123.405 61.0501 123.479 60.952 123.405 60.9029Z" fill="#E4E6D9"/>
<path d="M55.5562 64.6059C56.4409 63.9929 66.0985 57.6174 74.4291 63.7232C74.4291 63.7232 85.168 71.4474 97.8974 66.0772C97.922 66.0772 97.9465 66.1017 97.922 66.1017C96.9636 66.7393 90.9921 70.4665 82.5877 69.5347C78.9753 69.1424 75.5841 67.7692 72.6598 65.7584C69.8338 63.7967 63.8623 61.0504 55.5562 64.6059Z" fill="#E4E6D9"/>
<path d="M29.4336 63.1832C30.5394 63.7962 40.0987 67.5479 48.2819 61.7855C48.2819 61.7855 59.758 52.9823 72.3399 59.6031C72.3645 59.6276 72.3645 59.6766 72.3154 59.6521C71.2095 59.4069 66.0981 58.4751 60.1758 59.6276C60.1758 59.6276 55.4084 60.8046 49.8301 63.9678C49.8301 63.9678 37.1498 72.6238 29.3844 63.2077C29.3844 63.2077 29.409 63.1586 29.4336 63.1832Z" fill="#E4E6D9"/>
<path d="M46.4897 72.6006C47.1778 72.6006 47.7184 72.7968 48.1116 73.1891C48.5294 73.5814 48.726 74.1699 48.726 74.9546C48.726 75.4696 48.6277 75.911 48.4556 76.2543C48.259 76.5975 48.0133 76.8673 47.6693 77.0389C47.3252 77.2106 46.932 77.3087 46.4651 77.3087C46.1702 77.3087 45.9245 77.2841 45.7033 77.2106C45.4822 77.137 45.2856 77.0635 45.1381 76.9654C44.9907 76.8673 44.8432 76.7447 44.745 76.6221H44.6958C44.6958 76.7202 44.7204 76.8673 44.745 77.0144C44.7695 77.1615 44.7695 77.3087 44.7695 77.4068V79.2704H43.934V72.6987H44.6221L44.7204 73.3607H44.7695C44.8678 73.2136 45.0153 73.091 45.1627 72.9929C45.3102 72.8703 45.5067 72.7968 45.7279 72.7232C45.9245 72.6251 46.1948 72.6006 46.4897 72.6006ZM46.3423 73.1891C45.9737 73.1891 45.6542 73.2381 45.433 73.3607C45.2119 73.4834 45.0398 73.655 44.917 73.9002C44.7941 74.1454 44.745 74.4397 44.745 74.8075V74.9301C44.745 75.3224 44.7941 75.6412 44.8924 75.911C44.9907 76.1807 45.1627 76.3769 45.4085 76.524C45.6542 76.6711 45.9491 76.7202 46.3423 76.7202C46.6863 76.7202 46.9566 76.6466 47.2024 76.4995C47.4235 76.3523 47.5955 76.1316 47.7184 75.8619C47.8413 75.5922 47.8904 75.2734 47.8904 74.9301C47.8904 74.3906 47.7676 73.9738 47.5218 73.655C47.2515 73.3362 46.8583 73.1891 46.3423 73.1891Z" fill="#E4E6D9"/>
<path d="M55.3375 72.6004C55.8044 72.6004 56.1976 72.674 56.5416 72.8456C56.8856 73.0173 57.1314 73.2625 57.3034 73.5568C57.4754 73.8755 57.5737 74.2188 57.5737 74.6357V75.0526H53.7893C53.7893 75.592 53.9613 75.9844 54.2562 76.2786C54.5757 76.5483 54.9934 76.6955 55.5586 76.6955C55.9027 76.6955 56.2221 76.671 56.4679 76.6219C56.7382 76.5729 57.0085 76.4993 57.3034 76.4012V77.0143C57.0331 77.1123 56.7628 77.1859 56.4925 77.2349C56.2221 77.284 55.9027 77.3085 55.5341 77.3085C55.018 77.3085 54.5511 77.2104 54.1579 77.0388C53.7647 76.8671 53.4698 76.5974 53.2487 76.2541C53.0275 75.9108 52.9292 75.4939 52.9292 74.979C52.9292 74.4886 53.0275 74.0717 53.2241 73.7039C53.4207 73.3361 53.691 73.0663 54.0596 72.8702C54.4282 72.674 54.846 72.6004 55.3375 72.6004ZM55.3375 73.1644C54.8951 73.1644 54.5511 73.287 54.2808 73.5322C54.0105 73.7774 53.863 74.1207 53.8139 74.5376H56.7136C56.7136 74.2679 56.6645 74.0227 56.5662 73.8265C56.4679 73.6303 56.3204 73.4587 56.1238 73.3361C55.9027 73.2135 55.6569 73.1644 55.3375 73.1644Z" fill="#E4E6D9"/>
<path d="M64.2324 77.3083C63.7409 77.3083 63.2986 77.2347 62.93 77.063C62.5614 76.8914 62.2665 76.6462 62.0453 76.3029C61.8242 75.9596 61.7259 75.5182 61.7259 75.0033C61.7259 74.4638 61.8487 73.9979 62.0453 73.6546C62.2665 73.3113 62.5614 73.0416 62.9546 72.8699C63.3478 72.6983 63.7901 72.6247 64.2816 72.6247C64.5519 72.6247 64.8222 72.6492 65.068 72.6983C65.3137 72.7473 65.5349 72.7964 65.6823 72.8699L65.4366 73.4584C65.2645 73.4094 65.068 73.3603 64.8714 73.3113C64.6502 73.2623 64.4536 73.2377 64.257 73.2377C63.8884 73.2377 63.5689 73.3113 63.3232 73.4339C63.0775 73.581 62.8809 73.7772 62.758 74.0224C62.6351 74.2921 62.5614 74.6109 62.5614 75.0033C62.5614 75.3711 62.6105 75.6899 62.7334 75.9351C62.8563 76.2048 63.0283 76.401 63.274 76.5236C63.5198 76.6707 63.8147 76.7197 64.1833 76.7197C64.4782 76.7197 64.7239 76.6952 64.9697 76.6462C65.1908 76.5971 65.412 76.5236 65.6086 76.4745V77.0876C65.4366 77.1611 65.2154 77.2347 64.9942 77.2592C64.7976 77.2837 64.5519 77.3083 64.2324 77.3083Z" fill="#E4E6D9"/>
<path d="M73.7162 73.2625H71.9223V77.235H71.1114V73.2625H69.3421V72.674H73.7408V73.2625H73.7162Z" fill="#E4E6D9"/>
<path d="M82.5882 74.9545C82.5882 75.3223 82.539 75.6656 82.4161 75.9598C82.2933 76.2541 82.1213 76.4993 81.9001 76.6955C81.6789 76.8916 81.4086 77.0633 81.1137 77.1614C80.7942 77.2595 80.4502 77.333 80.057 77.333C79.6884 77.333 79.3444 77.284 79.0495 77.1614C78.7546 77.0633 78.4843 76.8916 78.2631 76.6955C78.0419 76.4993 77.8699 76.2541 77.7471 75.9598C77.6242 75.6656 77.575 75.3223 77.575 74.9545C77.575 74.464 77.6733 74.0227 77.8699 73.6794C78.0665 73.3361 78.3614 73.0663 78.73 72.8702C79.0986 72.674 79.5655 72.6004 80.0816 72.6004C80.5731 72.6004 81.0154 72.6985 81.384 72.8702C81.7526 73.0663 82.0475 73.3115 82.2687 73.6794C82.4899 74.0472 82.5882 74.464 82.5882 74.9545ZM78.4351 74.9545C78.4351 75.3223 78.4843 75.6411 78.6072 75.9108C78.73 76.1805 78.902 76.3767 79.1478 76.5238C79.3935 76.671 79.713 76.7445 80.0816 76.7445C80.4502 76.7445 80.7697 76.671 81.0154 76.5238C81.2612 76.3767 81.4332 76.1805 81.556 75.9108C81.6789 75.6411 81.7281 75.3223 81.7281 74.9545C81.7281 74.5866 81.6789 74.2679 81.556 74.0227C81.4332 73.7529 81.2612 73.5568 81.0154 73.4096C80.7697 73.2625 80.4502 73.1889 80.0816 73.1889C79.5164 73.1889 79.0986 73.3361 78.8283 73.6548C78.558 73.9491 78.4351 74.3905 78.4351 74.9545Z" fill="#E4E6D9"/>
<path d="M89.6641 72.6004C90.3521 72.6004 90.8928 72.7966 91.286 73.1889C91.7037 73.5813 91.9003 74.1698 91.9003 74.9545C91.9003 75.4694 91.802 75.9108 91.63 76.2541C91.4334 76.5974 91.1877 76.8671 90.8436 77.0388C90.4996 77.2104 90.1064 77.3085 89.6395 77.3085C89.3446 77.3085 89.0989 77.284 88.8777 77.2104C88.6565 77.1369 88.4599 77.0633 88.3125 76.9652C88.1651 76.8671 88.0176 76.7445 87.9193 76.6219H87.8702C87.8702 76.72 87.8947 76.8671 87.9193 77.0143C87.9439 77.1614 87.9439 77.3085 87.9439 77.4066V79.2702H87.1084V72.6985H87.7964L87.8947 73.3606H87.9439C88.0422 73.2135 88.1896 73.0909 88.3371 72.9928C88.4845 72.8702 88.6811 72.7966 88.9023 72.723C89.0989 72.6249 89.3446 72.6004 89.6641 72.6004ZM89.5166 73.1889C89.148 73.1889 88.8286 73.238 88.6074 73.3606C88.3862 73.4832 88.2142 73.6548 88.0913 73.9C87.993 74.1453 87.9193 74.4395 87.9193 74.8073V74.9299C87.9193 75.3223 87.9685 75.6411 88.0668 75.9108C88.1651 76.1805 88.3371 76.3767 88.5828 76.5238C88.8286 76.671 89.1234 76.72 89.5166 76.72C89.8607 76.72 90.131 76.6464 90.3767 76.4993C90.5979 76.3522 90.7699 76.1315 90.8928 75.8617C91.0156 75.592 91.0648 75.2732 91.0648 74.9299C91.0648 74.3905 90.9419 73.9736 90.6962 73.6548C90.4259 73.3361 90.0327 73.1889 89.5166 73.1889Z" fill="#E4E6D9"/>
<path d="M98.4629 72.6004C99.1264 72.6004 99.5933 72.723 99.9128 72.9682C100.232 73.2135 100.38 73.6058 100.38 74.1453V77.2349H99.7653L99.5933 76.5729H99.5441C99.3967 76.7445 99.2247 76.8671 99.0772 76.9897C98.9052 77.1123 98.7086 77.1859 98.512 77.2349C98.2909 77.284 98.0205 77.3085 97.7011 77.3085C97.357 77.3085 97.0622 77.2595 96.8164 77.1614C96.5707 77.0633 96.3495 76.9162 96.2021 76.72C96.0546 76.5238 95.9809 76.2786 95.9809 75.9844C95.9809 75.543 96.2021 75.1752 96.6198 74.9299C97.0622 74.6847 97.7011 74.5621 98.5858 74.5376L99.5196 74.5131V74.2433C99.5196 73.851 99.4213 73.5813 99.2247 73.4096C99.0281 73.2625 98.7332 73.1644 98.3646 73.1644C98.0697 73.1644 97.7994 73.1889 97.5536 73.2625C97.3079 73.3361 97.0376 73.4096 96.8164 73.5077L96.5707 72.9928C96.8164 72.8947 97.1113 72.7966 97.4308 72.723C97.7748 72.6495 98.0943 72.6004 98.4629 72.6004ZM99.5687 74.979L98.7332 75.0035C98.0451 75.028 97.5782 75.1261 97.2833 75.2732C97.013 75.4449 96.8656 75.6656 96.8656 75.9598C96.8656 76.2296 96.9639 76.4012 97.1604 76.5484C97.357 76.6955 97.6028 76.7445 97.9222 76.7445C98.4137 76.7445 98.8069 76.6219 99.1264 76.4012C99.4458 76.1805 99.5933 75.8372 99.5933 75.3958V74.979H99.5687Z" fill="#E4E6D9"/>
<path d="M105.983 72.674V74.5867H109.03V72.674H109.866V77.2104H109.03V75.1507H105.983V77.2104H105.148V72.674H105.983Z" fill="#E4E6D9"/>
<path d="M126.06 32.2875C122.619 25.7403 117.729 20.223 111.537 15.8337C103.771 10.3409 93.9661 6.68728 82.3425 4.89723C82.1213 4.84819 60.2013 1.31712 42.4342 14.1172C40.2717 15.6866 38.2566 17.4031 36.3889 19.3157L36.5855 19.5855C38.4532 17.6728 40.4437 15.9563 42.6062 14.387C60.2504 1.68494 82.0476 5.19148 82.2688 5.216C108.465 9.21297 120.359 22.2092 125.74 32.4101C130.483 41.3849 131.122 49.8447 131.196 52.7382H131.515C131.466 49.8202 130.827 41.3358 126.06 32.2875Z" fill="#E4E6D9"/>
<path d="M129.206 31.601C125.618 24.6369 120.457 18.7273 113.847 14.0438C105.59 8.2077 95.0478 4.2843 82.5396 2.37164C82.3184 2.34712 58.8256 -1.45367 40.1247 12.033C38.8222 12.9648 37.5935 13.9702 36.414 15.0001V16.3242C37.7656 15.0737 39.1909 13.9212 40.7145 12.8177C59.0959 -0.423779 82.171 3.27893 82.4167 3.32797C110.333 7.61919 122.767 21.2775 128.297 32.0178C132.867 40.8945 133.58 49.2563 133.678 52.7628H134.661C134.588 49.1582 133.85 40.6248 129.206 31.601Z" fill="#E4E6D9"/>
<path d="M36.2917 29.3452C35.9477 29.4678 35.6037 29.5904 35.3333 29.8111C34.4487 30.4486 33.5149 30.841 32.4582 30.8164C31.1803 30.7919 29.927 30.7429 28.6492 30.6693C28.4034 30.6693 28.1086 30.7184 28.084 30.277C28.084 29.7865 27.912 29.149 28.4772 28.9528C29.1407 28.7076 29.755 28.3888 30.3939 28.0946C32.065 27.2854 33.3674 25.8877 34.8173 24.7106C35.0139 24.5635 35.5545 24.1221 35.3825 24.024C35.1122 23.926 34.4487 24.5635 34.0801 24.9068C32.2616 26.6233 30.5905 27.2118 28.2069 26.9421C28.1331 26.9421 28.0594 26.8685 28.0594 26.7704C28.0594 25.7896 28.0594 24.8333 28.084 23.8769C28.084 23.7298 28.256 23.5581 28.4034 23.4601C29.0178 23.1168 29.6321 22.7735 30.2465 22.4547C31.3032 21.8907 32.3353 21.3022 33.564 21.2286C33.8835 21.2041 34.4487 21.1551 34.4732 20.9589C34.4487 20.8608 34.375 20.7872 34.2521 20.7872C34.1292 20.7872 33.9818 20.8118 33.8589 20.8118C33.22 20.8853 32.5565 21.106 31.9175 21.0325C30.738 20.9344 29.583 20.6892 28.428 20.493C28.2806 20.4685 28.0594 20.2968 28.0594 20.1987C28.0594 19.978 28.0594 19.6102 28.256 19.5367C29.6076 18.8991 30.7871 17.7466 32.409 17.9918C32.5565 18.0163 32.7039 17.9673 32.8514 17.9183C33.1708 17.7957 33.3428 17.5014 33.1708 17.1336C32.6793 17.0845 32.3599 17.4033 31.9667 17.4769C31.5735 17.5504 31.1557 17.5995 30.7626 17.575C30.4431 17.5504 29.1898 16.9129 28.6738 16.7167C29.3127 16.2018 30.0745 15.4416 30.4431 15.1228C30.5905 15.0002 30.7626 14.8531 30.9346 14.755C31.1066 14.6569 31.3032 14.5588 31.4752 14.4853C31.5735 14.4362 31.6718 14.3872 31.7701 14.3382C31.7947 14.3136 31.8192 14.2891 31.7947 14.2401L31.7701 14.191C31.7455 14.1665 31.7209 14.142 31.6964 14.1665C30.4431 14.5098 29.3618 13.8232 28.1823 13.6761C28.1331 13.6761 28.1086 13.6025 28.1331 13.578C28.9686 12.401 30.2957 12.3519 31.3032 11.6653C31.3523 11.6163 31.3278 11.5182 31.254 11.5427C30.2219 11.7634 29.2881 12.3765 28.1086 12.2048C28.084 12.2048 28.0594 12.1558 28.0594 12.1312C28.2069 10.9787 28.3543 9.85076 28.5263 8.67374C28.5263 8.6247 28.5017 8.60018 28.4526 8.60018C28.3789 8.60018 28.3051 8.69827 28.3051 8.72279C27.5925 9.63007 26.929 10.4638 26.2655 11.3956C25.946 11.837 26.1426 12.3029 26.6833 12.45C27.0519 12.5481 27.4205 12.5726 27.7891 12.5971C27.8137 12.5971 27.8382 12.6217 27.8382 12.6462C27.912 13.4799 27.8137 13.5535 27.0519 13.5535C26.6095 13.5535 26.1918 13.5044 25.7494 13.5535C25.2088 13.627 24.6436 13.6516 24.0784 13.8722C23.8572 13.9703 23.6361 14.1175 23.6852 14.3382C23.7589 14.6324 24.4716 14.5834 24.9876 14.4853C25.7249 14.3627 26.4375 14.1175 27.1502 13.9213C27.4205 13.8477 27.7891 13.6516 27.8137 14.191C27.8628 15.0002 27.8137 15.834 27.8137 16.6922C27.8137 16.7412 27.7891 16.7658 27.7399 16.7658C26.0198 16.496 24.3979 16.4225 22.8743 17.2807C22.8251 17.3052 22.8251 17.3788 22.8743 17.4033C24.5699 18.6784 26.2655 17.673 27.912 17.2317C28.0594 17.1826 28.2806 17.06 28.5263 16.8884C28.8704 16.9865 30.0991 17.624 30.6888 17.8447C30.7626 17.8692 30.7626 17.9673 30.6888 18.0163C29.8533 18.4577 29.1161 18.8501 28.3543 19.2424C28.2069 19.316 27.9611 19.2914 27.8382 19.3895C27.3468 19.8064 26.8307 20.1742 26.1426 20.1006C25.258 20.0026 24.4716 19.88 23.5623 19.8554C23.2429 19.8309 22.776 19.978 22.5057 20.1497C22.3336 20.2478 22.1125 20.3704 22.2108 20.7872C22.2353 20.9344 22.5057 21.1305 22.6777 21.1796C22.948 21.2531 23.2429 21.2531 23.5132 21.2041C24.275 21.057 25.0368 20.9589 25.7494 20.6646C26.4621 20.3704 27.0764 20.493 27.8137 20.7382C27.8137 20.9344 27.8137 21.1305 27.8137 21.3267C27.7891 22.0378 28.0103 22.9696 27.6908 23.4355C27.3222 23.9505 26.4621 24.1467 25.774 24.3428C24.4224 24.7597 23.0463 25.1275 21.6947 24.2938C21.449 24.1467 21.1541 24.0976 20.8838 24.0976C20.7118 24.0976 20.5643 24.1221 20.3677 24.1957C20.2203 24.2447 20.1957 24.4409 20.3186 24.5635C20.8592 25.0294 21.4735 24.9804 22.0388 25.0539C22.4811 25.103 22.948 25.2011 23.3412 25.4218C24.4962 26.0593 25.5283 26.8195 26.8799 27.0156C27.3222 27.0892 27.3959 27.0892 27.6908 27.1628C27.7645 27.1873 27.8137 27.2363 27.8137 27.3344C27.8137 27.8003 27.8382 28.2417 27.7891 28.634C27.7645 28.8057 27.6416 29.0509 27.4942 29.1245C26.4621 29.5904 25.4546 30.1298 24.275 29.9827C23.6606 29.9092 23.0463 29.8111 22.4319 29.762C21.9405 29.7375 21.4244 29.762 20.9329 29.762C20.8838 29.762 20.8592 29.7865 20.8592 29.8356C20.8346 29.9091 20.8592 30.0072 20.9329 30.0563C21.1295 30.2034 21.3015 30.3996 21.4981 30.4241C22.4074 30.6938 23.2183 30.5957 24.0538 30.4731C24.9139 30.3505 25.7494 30.3015 26.6095 30.5222C27.8628 30.8655 27.8874 30.8655 27.912 32.2632C27.9365 33.8816 27.9365 33.8816 26.4129 34.0532C25.9952 34.1023 24.2504 34.323 23.292 33.9306C22.7514 33.6854 22.1862 33.4157 21.5964 33.1705C21.4735 33.1214 21.3261 33.195 21.3015 33.3421C21.2032 34.0287 21.5227 34.6663 22.3091 35.0341C23.1937 35.451 24.1276 35.7207 25.0859 35.9659C25.946 36.2111 26.8307 36.3337 27.7154 36.5544C27.8628 36.5789 28.084 36.7751 28.1086 36.8977C28.1577 37.5107 28.1331 38.1238 28.1331 38.7368C26.8553 38.7368 25.5774 38.7368 24.2996 38.7368C23.5378 38.7368 22.8988 38.4671 22.3582 37.8295C22.1862 37.6088 21.9405 37.4617 21.6701 37.2655C21.5718 37.192 21.449 37.2655 21.449 37.3881C21.4735 37.9766 21.6456 38.3199 22.1125 38.5406C22.776 38.8594 23.4149 39.2027 24.0784 39.497C24.447 39.6686 24.8156 39.7667 25.2088 39.8403C25.8723 39.9629 26.5358 40.0364 27.1993 40.159C28.2314 40.3307 28.2314 40.3307 28.256 41.4587C28.256 42.0962 28.256 44.0089 28.256 44.6464V44.7935V54.3078C26.6095 54.2588 25.1597 53.6702 23.7098 53.1553C21.7684 52.4687 19.8517 51.7331 17.7629 51.8557C16.9273 51.9047 16.0672 51.8802 15.1826 51.8802C14.9368 51.8802 14.7402 51.684 14.7648 51.4388L14.7894 50.7032L15.2072 50.7767C15.4283 50.8258 15.6003 50.6541 15.5758 50.4334C15.5266 50.0656 15.4775 49.7468 15.4529 49.4035C15.1089 45.2595 15.1334 41.1154 15.33 36.9713C15.3546 36.5544 15.33 36.2847 14.8877 36.1621C14.5682 36.1375 14.5928 35.9414 14.5928 35.8188C14.5437 35.4264 14.5682 35.0341 14.5682 34.5682C15.1334 34.6663 15.6495 34.6908 16.1164 34.8624C17.0502 35.2057 17.9103 35.1322 18.795 34.7153C19.6059 34.323 20.3186 33.759 21.0804 32.9988C18.795 33.244 16.657 33.4647 14.5437 32.8272V31.503C16.7062 32.7536 18.3526 31.1597 20.1465 30.4977C20.0728 30.4241 19.9991 30.3996 19.95 30.3996C18.4755 30.7184 17.0011 30.6448 15.5512 30.277C14.3471 29.9827 14.3225 29.9827 14.4699 28.6586C14.4699 28.634 14.4945 28.634 14.4945 28.585C15.7724 29.0019 17.0011 28.7567 18.156 28.0946C18.1806 28.0701 18.623 27.8003 18.8441 27.6532C19.1636 27.457 19.3847 27.1873 19.483 26.8685C19.5322 26.7214 19.4093 26.5988 19.2619 26.6478C17.1977 27.3099 16.9519 27.2854 14.7402 26.4517C14.6174 26.4026 14.4208 26.3045 14.4208 26.2064C14.3962 25.716 14.3962 25.2256 14.3962 24.7352C16.3621 24.6616 17.9594 23.8769 18.5984 22.7244C18.6475 22.6263 18.5738 22.5037 18.4755 22.5037C18.4264 22.5037 18.3772 22.5037 18.3035 22.5037C17.1239 22.5037 15.9444 22.5283 14.7648 22.5037C14.5928 22.5037 14.3225 22.3076 14.2979 22.185C14.2488 21.5719 14.2733 20.9589 14.2733 20.3704C14.7157 20.2478 15.1334 20.1987 15.502 20.0271C15.8215 19.8554 16.1164 19.8309 16.4604 19.929C17.4434 20.1742 18.5001 19.6347 19.0161 18.6539C19.0653 18.5558 18.9916 18.4332 18.8933 18.4577C17.9349 18.5558 16.9765 18.6294 16.1655 19.2179C16.0427 19.316 15.8461 19.4141 15.7232 19.365C14.5682 19.0217 13.9784 17.8937 14.2488 16.6432C16.5096 16.8884 18.1806 16.6432 18.9424 15.7849C19.0653 15.6623 18.967 15.4416 18.8195 15.4416C18.5738 15.4416 18.3526 15.4416 18.1069 15.4171C17.0011 15.368 15.8707 15.368 14.7648 15.368C14.3225 15.368 14.0767 15.1964 14.1259 14.6815C14.1505 14.4608 14.1259 14.2155 14.1259 13.9458C15.4037 13.9213 16.5833 13.8232 17.6646 13.2347C17.8612 13.1366 17.7874 12.8178 17.5663 12.8178C16.4604 12.7688 15.4037 12.5481 14.3962 12.1067C14.0767 11.9596 14.003 11.7144 14.0767 11.4446C14.1259 11.273 14.2733 11.0768 14.4208 11.0278C14.8877 10.8316 15.3792 10.66 15.8707 10.5619C16.5587 10.4148 17.2222 10.2921 17.9103 10.1695C18.0823 10.145 18.0823 9.92433 17.9349 9.87529C16.6816 9.48295 15.33 9.53199 14.0522 9.11513C13.9293 7.74194 13.9293 7.91359 15.502 7.64385C15.7724 7.59481 16.0181 7.52125 16.2638 7.44768C16.5587 7.3496 16.8536 7.22699 16.829 7.0063C16.829 6.88369 16.7307 6.81013 16.6324 6.78561C16.1655 6.71204 15.7232 6.63848 15.2563 6.61396C13.6836 6.49135 13.9293 6.71204 13.9293 5.0446C13.9293 5.02008 13.9293 4.99556 13.9539 4.97104C13.9784 4.92199 14.003 4.89747 14.0522 4.89747C14.6911 4.67678 15.2809 4.358 15.7478 3.84306C15.9198 3.64689 15.7969 3.35263 15.5758 3.30359C15.158 3.25455 14.3716 3.15646 14.1013 3.10742C14.0522 3.10742 14.003 3.05838 14.0276 3.00933C14.1996 1.53806 14.3716 1.29285 14.5437 0.55721C14.5928 0.385561 14.3962 0.262955 14.2733 0.385561C13.5115 1.17024 12.7497 1.88136 12.4794 3.05838C12.4549 3.2055 12.5531 3.32811 12.676 3.32811H13.831C13.8064 3.84306 13.7573 4.28444 13.7327 4.72582C12.9955 4.89747 12.4303 4.7013 11.8896 4.30896C11.7668 4.21088 11.5948 4.358 11.6439 4.50513C11.7422 4.77487 11.8405 4.99556 12.0125 5.16721C12.4794 5.65763 13.0692 6.00093 13.5115 6.51587C13.7081 6.76109 13.7327 7.22699 13.7573 7.59481C13.7573 7.71742 13.5115 7.91359 13.3641 7.96263C12.7252 8.20784 12.1108 8.2814 11.4719 8.1588C11.2753 8.10976 11.1033 8.01167 10.9558 7.84002C10.8821 7.71742 10.7838 7.61933 10.6855 7.52125C10.5135 7.37412 10.3169 7.27603 10.0957 7.25151C9.99744 7.25151 9.94829 7.3496 9.99744 7.42316C10.1695 7.69289 10.3661 7.93811 10.6364 8.01167C11.3982 8.40401 12.6514 8.968 13.4132 9.36034C13.5607 9.4339 13.8064 9.50747 13.8064 9.58103C13.8556 10.0224 13.8802 10.4883 13.8064 10.9052C13.7573 11.0768 13.3641 11.1749 13.1184 11.224C12.8726 11.273 12.6023 11.273 12.3811 11.1749C11.7914 10.9297 11.2261 10.6354 10.6364 10.3412C10.3661 10.2186 10.0712 10.096 9.80085 9.97337C9.60426 9.97337 9.48139 10.0224 9.53054 10.2921C9.65341 10.5374 9.77628 10.7826 9.9483 10.9542C10.6118 11.5918 11.3982 11.9351 12.332 11.6899C12.8726 11.5427 13.8556 11.9596 13.8802 12.3274C13.9293 12.7688 13.8802 13.2102 13.8802 13.7006C12.6514 13.5535 11.2753 14.2646 10.3415 12.8178C10.3169 12.7688 10.2186 12.7933 10.2186 12.8424C10.1203 13.7496 10.4644 14.3627 11.2999 14.7305C12.1354 15.0983 13.0446 15.319 13.9539 15.6378C13.9539 15.6868 13.9784 15.8094 13.9784 15.9075C13.9784 16.0546 13.9539 16.1772 13.9539 16.2753C12.6514 16.8148 11.3982 16.8148 10.0712 16.2508C9.89915 16.1772 9.7517 16.3734 9.85 16.5451C10.3169 17.2562 10.9558 17.5259 11.6931 17.673C12.3074 17.7957 12.9463 17.9183 13.5607 18.0899C13.7327 18.1389 13.9539 18.3351 13.9784 18.4822C14.0276 18.9727 14.003 19.4631 14.003 19.978C12.9218 19.9045 11.8651 20.1987 10.9067 19.5367C10.3906 19.1934 9.89915 18.801 9.38309 18.4332C9.28479 18.4332 9.23565 18.4822 9.23565 18.5313C9.30937 18.8746 9.35852 19.2424 9.53054 19.4876C9.85 19.929 10.2186 20.3459 10.6609 20.6401C11.6685 21.3022 12.7006 21.8907 13.7327 22.5283C13.8802 22.6263 14.0767 22.7735 14.0767 22.9206C14.1259 23.3865 14.1013 23.8769 14.1013 24.4164C12.7252 24.3183 11.4227 24.1712 10.194 23.3865C10.1203 24.1467 10.4644 24.6126 10.9067 25.0049C11.7176 25.7651 12.676 26.1819 13.7327 26.4271C13.9047 26.4762 14.1505 26.6478 14.175 26.8195C14.2488 27.2118 14.1996 27.6287 14.1996 28.0946C12.9463 27.6042 11.7668 27.7758 10.4889 28.1191C10.4152 28.1436 10.3906 28.2417 10.4644 28.2907C10.6364 28.4379 10.7592 28.5605 10.9067 28.634C11.8405 29.0999 12.7743 29.5659 13.7081 29.9827C14.2979 30.2524 14.3962 30.3015 14.2488 30.89C14.2242 30.939 14.175 30.9881 14.1259 30.9881C12.676 30.8164 11.2261 30.6693 9.77628 30.4977C9.70255 30.4977 9.70255 30.5467 9.70255 30.5957C10.6364 32.68 12.6269 32.631 14.2979 33.1705V34.2985C13.0692 34.2249 11.8896 34.1513 10.6855 34.0778C10.5872 34.0778 10.4889 34.1758 10.5135 34.2739C10.5626 34.7398 10.8575 34.9605 11.177 35.0831C12.0371 35.451 12.9218 35.8188 13.8064 36.0885C14.2733 36.2356 14.4208 36.4318 14.4208 36.9467C14.4699 41.287 14.5191 45.6027 14.5682 49.943C14.5682 50.1147 14.5437 50.3108 14.5437 50.4825C12.3566 50.7767 7.71205 51.3652 6.06559 52.6404C5.79527 52.812 5.72155 52.248 5.69698 52.0273C5.59868 51.1691 5.47581 50.3108 5.45123 49.4526C5.37751 46.8779 5.35294 44.3031 5.27922 41.7284C5.27922 41.6058 5.23007 40.9928 5.20549 40.3307C6.21303 40.4288 8.86703 40.2571 9.28479 39.5215C9.30937 39.4724 9.28479 39.3744 9.21107 39.3989C8.05609 39.497 6.28675 39.6196 5.15634 39.7422C5.13177 39.2517 5.08262 38.8104 5.08262 38.6142C5.6724 38.7123 6.26218 38.7858 6.82738 38.8839C6.85196 38.8839 6.90111 38.8594 6.90111 38.8349V38.7858C6.90111 38.7613 6.87653 38.7123 6.85196 38.7123C6.18846 38.5897 5.52496 38.4671 4.83688 38.3199C4.81231 38.3199 4.78773 38.2954 4.78773 38.2464C4.78773 38.0747 4.81231 37.9276 4.81231 37.7069C4.81231 37.6579 4.83688 37.6333 4.88603 37.6579C5.52496 37.756 6.11473 37.8786 6.72909 37.9766C6.75366 37.9766 6.80281 37.9521 6.80281 37.9276V37.8786C6.80281 37.854 6.77824 37.805 6.75366 37.805C6.26218 37.7069 5.74612 37.5598 5.25464 37.5107C4.83688 37.4617 4.71401 37.29 4.83688 36.8732C4.83688 36.8487 4.86146 36.8241 4.88603 36.8241C6.23761 36.8732 7.63833 37.192 8.84246 35.9659C8.86703 35.9169 8.86703 35.8678 8.81789 35.8433C8.62129 35.8188 8.47385 35.7697 8.3264 35.7697C7.31887 35.6471 6.31133 35.5245 5.32836 35.3529C5.15634 35.3283 5.03347 35.1812 4.86146 35.0586C4.83688 35.0341 4.83688 34.9851 4.86146 34.9605C4.98433 34.8379 5.1072 34.6663 5.27922 34.6172C6.28675 34.2739 7.29429 33.9061 8.30183 34.6172C8.35098 34.6418 8.49842 34.6663 8.59672 34.6172C8.62129 34.5927 8.67044 34.4211 8.67044 34.3965C8.62129 34.2985 8.523 34.2494 8.47385 34.2249C8.15439 34.1268 7.83492 34.0287 7.49088 33.9797C6.63079 33.8816 5.79527 33.8326 4.93518 33.759C4.9106 33.759 4.88603 33.7345 4.88603 33.7099C4.73858 32.8517 4.76316 32.8272 5.59868 32.7536C5.81985 32.7291 6.04101 32.7291 6.26218 32.68C6.87653 32.582 7.49088 32.5329 7.90864 33.2195C7.95779 33.2931 8.05609 33.3176 8.12981 33.3421C8.15439 33.3421 8.17896 33.3421 8.20353 33.3176C8.54757 32.68 8.40013 32.4348 7.7612 32.3368C6.80281 32.1896 5.86899 31.9689 4.9106 31.7728C4.88603 31.7728 4.86146 31.7482 4.86146 31.6992V30.4731C4.86146 30.4241 4.88603 30.3996 4.93518 30.3996C6.18846 30.5222 7.29429 30.0808 8.3264 29.4432C8.37555 29.4187 8.35098 29.3206 8.30183 29.3206C8.15439 29.3206 8.00694 29.3452 7.88407 29.3452C7.63833 29.3697 7.36801 29.4678 7.12227 29.4432C6.45877 29.3942 5.81985 29.2961 5.18092 29.198C5.05805 29.1735 4.88603 29.0264 4.86146 28.9038C4.81231 28.634 4.83688 28.3643 4.83688 28.0946C4.83688 28.0455 4.86146 28.021 4.9106 28.021C6.06559 28.0946 7.14685 28.3643 8.25268 27.972C8.30183 27.9474 8.30183 27.8984 8.27726 27.8739C7.7612 26.795 6.55707 27.1873 5.30379 27.4815C5.15634 27.4815 4.98433 27.5061 4.83688 27.5061C4.86146 27.1137 4.88603 26.7214 4.9106 26.329C6.58164 26.7214 7.78577 26.4026 8.37555 25.4463C8.44928 25.3237 8.35098 25.1765 8.22811 25.2011C7.24514 25.4463 6.23761 25.6915 5.18092 25.9367C5.03347 25.9612 4.9106 25.8631 4.9106 25.716V25.2501C4.9106 25.103 4.98433 24.9559 5.13177 24.9068C6.01644 24.49 6.85196 24.0976 7.68748 23.6808C7.81035 23.6317 7.78577 23.411 7.63833 23.411C7.49088 23.411 7.36801 23.411 7.22057 23.411C6.45877 23.4355 5.7707 23.1903 5.18092 22.7244C5.05805 22.6263 4.9106 22.4056 4.9106 22.2585C4.93518 22.1114 5.13177 21.9397 5.27922 21.8907C5.52496 21.8417 5.81985 21.8171 6.06559 21.8662C6.58164 21.9888 6.87653 21.9397 7.04855 21.4984C7.0977 21.4003 7.02398 21.2531 6.90111 21.2777C6.58164 21.3022 6.26218 21.3267 5.96729 21.3267C5.7707 21.3267 5.54953 21.3512 5.37751 21.2777C4.81231 21.0325 4.73858 20.6156 4.95975 19.6347C6.31133 19.7574 6.67994 19.7819 6.82738 19.5612C6.92568 19.4141 6.82738 19.1934 6.65536 19.1934H4.9106V17.7711C5.32836 17.7466 5.72155 17.6976 6.11473 17.673C6.26218 17.6485 6.3359 17.4524 6.23761 17.3543C6.01644 17.1336 5.81985 16.8638 5.5741 16.7412C4.9106 16.4225 4.81231 15.932 4.88603 15.2454C4.93518 14.706 4.9106 14.142 4.9106 13.6025C4.9106 13.4309 4.71401 13.3328 4.59114 13.4799C4.41912 13.6761 4.27168 13.8477 4.09966 14.0439C3.50988 14.3872 3.0184 14.8531 2.62521 15.4416C2.50234 15.6378 2.60064 15.9075 2.82181 15.9566C3.28871 16.0546 3.6819 16.1282 4.09966 16.2018C4.73858 16.2999 4.73858 16.7903 4.66486 17.2807C4.59114 17.7957 4.17338 17.7221 3.87849 17.7221C3.53445 17.7221 3.19042 17.624 2.84638 17.673C2.62521 17.6976 2.47777 17.6976 2.20745 17.8692C2.20745 17.9183 2.20745 17.9428 2.20745 17.9918C2.20745 18.0163 2.23203 18.0654 2.2566 18.0654C3.23957 18.0409 3.82934 18.6784 4.49284 19.4386C4.56657 19.5367 4.54199 19.6838 4.41912 19.7083C3.95221 19.8309 3.55903 19.978 3.16584 20.0026C2.79723 20.0026 2.42862 19.9045 2.03543 19.7819C1.74054 19.7328 1.5931 19.929 1.6914 20.1006C1.86342 20.4439 2.23203 20.4194 2.50234 20.3704C3.14127 20.2478 3.65732 20.5175 4.19795 20.8363C4.56657 21.057 4.68944 21.4003 4.51742 21.7191C4.4437 21.8662 4.00136 21.8907 3.75562 21.8662C2.9201 21.7681 2.08458 21.5964 1.24906 21.4493C1.10162 21.4248 1.00332 21.621 1.12619 21.7191C1.37193 21.9643 1.5931 22.2095 1.86342 22.4056C2.45319 22.8225 3.09212 22.6509 3.70647 22.4056C4.12423 22.234 4.46827 22.3811 4.54199 22.798C4.64029 23.3865 4.56657 23.975 4.56657 24.6616C3.78019 24.5635 3.04297 24.588 2.37947 24.3183C1.93714 24.1467 1.5931 23.7298 1.17534 23.4601C1.0279 23.362 0.880451 23.5581 1.00332 23.6808C1.27364 23.9995 1.56853 24.2938 1.88799 24.5145C2.57606 25.0049 3.33786 25.4218 4.05051 25.8631C4.2471 26.0103 4.05051 26.1574 3.85392 26.0593C2.96925 25.7405 2.1583 25.4953 1.27364 25.1765C1.15077 25.1275 1.05247 25.3237 1.15077 25.3972C1.98629 26.1084 2.82181 26.795 3.65732 27.5061C3.73105 27.5796 3.7802 27.6777 3.82934 27.8003C2.89553 28.021 1.22449 27.9229 0.388969 27.7758C0.339821 27.7758 0.290673 27.8248 0.339821 27.8739C1.42108 29.4187 3.04297 29.1245 4.49284 29.3697C4.51742 29.3697 4.54199 29.3942 4.54199 29.4432V30.1789C4.54199 30.2279 4.51742 30.2524 4.46827 30.2524C3.19042 30.1544 1.96171 30.0318 0.708433 29.9337C0.659284 29.9337 0.63471 29.9582 0.63471 30.0072C0.708433 30.4977 1.10162 30.7429 1.47023 30.9145C2.3549 31.3069 3.23956 31.6502 4.14881 31.9689C4.49284 32.0915 4.59114 32.2141 4.51742 32.4348C4.51742 32.4594 4.49284 32.4594 4.49284 32.4839C2.84638 33.2686 1.51938 32.1406 0.0695061 31.8463C0.0203579 31.8463 -0.0287904 31.8954 0.0203579 31.9444C0.290673 32.2877 0.855877 32.7046 1.17534 32.7781C2.30575 33.0479 3.09212 33.4402 4.12423 34.0042C4.17338 34.0287 4.2471 34.0042 4.29625 34.0287C4.39455 34.1023 4.54199 34.2004 4.54199 34.2739C4.51742 34.3965 4.41912 34.5927 4.32083 34.6172C4.00136 34.6908 3.65732 34.8134 3.33786 34.7398C2.64979 34.6172 1.96171 34.372 1.27364 34.2249C0.954174 34.1513 0.610136 34.1513 0.192377 34.1268C0.143228 34.1268 0.118654 34.1758 0.143228 34.2249C0.364395 34.7398 0.585562 34.9851 1.12619 35.0586C1.86342 35.1567 2.60064 35.1322 3.33786 35.1077C4.32083 35.0586 4.64029 35.3774 4.51742 36.1621C4.51742 36.1866 4.49284 36.2111 4.46827 36.2111C3.75562 36.2111 3.06755 36.2356 2.37947 36.2111C1.74055 36.1621 1.12619 36.064 0.413543 35.9659C0.364395 35.9659 0.315247 36.0395 0.364395 36.0885C0.413543 36.1375 0.462692 36.1621 0.51184 36.1866C1.74054 36.5544 2.77266 37.5598 4.14881 37.4862C4.27168 37.4862 4.51742 37.6579 4.54199 37.7805C4.56657 37.9766 4.49284 38.3935 4.41912 38.3935C3.63275 38.5652 2.9201 39.1537 2.03543 38.6878C1.51938 38.418 0.954174 38.1238 0.315247 38.2709C0.290673 38.2709 0.266099 38.2954 0.266099 38.3445C0.266099 38.8594 0.51184 39.1291 0.9296 39.2272C1.22449 39.3008 1.56853 39.3498 1.86342 39.2763C2.42862 39.1782 2.9201 39.2272 3.43616 39.546C3.73105 39.7177 4.05051 39.8403 4.36997 39.9874C4.39455 40.0119 4.4437 39.9874 4.4437 39.9629L4.46827 39.9138C4.49284 39.8893 4.46827 39.8403 4.4437 39.8403C4.05051 39.6441 3.65732 39.4234 3.19042 39.1782C3.14127 39.1537 3.14127 39.0801 3.19042 39.0556C3.65732 38.9085 4.02594 38.8104 4.4437 38.6878C4.46827 38.6878 4.51742 38.7123 4.51742 38.7368C4.54199 39.0311 4.56657 39.2763 4.59114 39.5215C4.59114 43.6165 4.59114 48.9131 4.59114 52.9591C4.64029 52.9591 4.66486 52.9591 4.71401 52.9591C4.71401 49.0357 4.71401 43.9353 4.71401 39.8893C4.73858 39.8893 4.76316 39.8648 4.76316 39.8403C4.78773 39.4234 4.81231 38.933 4.83688 38.6632C4.83688 38.6142 4.86146 38.5897 4.9106 38.6142C4.93518 38.6142 4.98433 38.6142 5.0089 38.6387C4.95975 38.6878 4.95975 38.7613 4.95975 38.8104C4.98433 40.9192 5.08262 45.5047 5.15634 47.6135C5.23007 49.2809 5.45123 50.9239 5.62325 52.5668C5.62325 52.6649 5.6724 52.8856 5.91814 52.8365C5.91814 52.812 5.96729 52.7875 5.99186 52.763C5.96729 52.7875 5.94272 52.812 5.91814 52.8365C8.3264 51.7085 12.2828 51.071 14.5928 50.7032V51.6595C14.5928 52.0273 14.9123 52.3216 15.2809 52.2725C16.2393 52.199 17.1485 52.1254 18.0577 52.1499C19.0653 52.1744 20.0728 52.3216 21.0558 52.5668C23.3903 53.1553 25.5528 54.3814 27.9611 54.5775C28.0594 54.5775 28.5755 54.6756 28.5755 54.6756C28.8212 54.7492 29.0669 54.7982 29.2881 54.8963C29.4356 54.9453 29.5584 55.0434 29.7059 55.1415C29.8042 55.2151 29.9516 55.117 29.927 54.9944C29.4601 52.3461 29.3373 49.7223 29.2881 47.1231C29.2881 47.025 29.3864 43.4204 29.3864 43.4204C29.3864 42.7092 29.3864 42.0226 29.3864 41.3115C29.3618 40.2816 29.3618 40.2816 28.5263 39.9874C28.5263 39.8403 28.5017 39.6686 28.5017 39.5215C28.5017 39.3744 28.5263 39.2027 28.5263 38.9575C31.2786 39.1046 33.564 38.1728 35.1613 35.6471C35.2105 35.549 35.1613 35.4264 35.063 35.4264C33.9326 35.4019 32.9251 35.7452 31.9175 36.064C30.91 36.3828 29.927 36.7506 28.8458 36.628C28.4772 36.5789 28.3051 36.4563 28.3051 36.0395C28.3051 35.5245 28.2806 34.9851 28.2314 34.4701C28.1823 34.0287 28.3297 33.8816 28.7229 33.7835C30.3448 33.3421 31.9913 32.9007 33.5886 32.3613C34.9156 31.9199 35.9477 31.0616 36.5866 29.6885C36.6358 29.4678 36.4637 29.2716 36.2917 29.3452ZM28.084 27.408C28.084 27.3589 28.1086 27.3099 28.1577 27.3099C29.3618 27.1873 30.5168 27.0647 31.6472 26.9421C31.6718 26.9421 31.6964 26.9911 31.6718 26.9911C30.6888 27.8003 29.4601 28.2662 28.1823 28.8057C28.1331 28.8302 28.0594 28.7812 28.0594 28.7321V27.408H28.084ZM28.0348 20.6892C29.2881 20.8853 30.4677 21.0815 31.8438 21.3267C30.4922 22.0378 29.3127 22.6754 28.0594 23.3375V20.6892H28.0348ZM25.9706 13.9949C25.9706 14.0194 25.8723 14.0929 25.8477 14.0929C25.5528 14.1665 24.7911 14.2891 24.447 14.3136C24.3979 14.3136 24.3733 14.2891 24.3241 14.2646C24.2258 14.191 24.275 14.0194 24.3979 13.9949L24.9385 13.8968C25.3808 13.8232 25.5283 13.7987 25.8232 13.7742C25.946 13.7251 26.0443 13.8477 25.9706 13.9949ZM27.2976 17.0355C26.3638 17.6485 24.619 17.8692 23.6361 17.575C23.4149 17.5014 23.3903 17.1826 23.6115 17.0845C24.4716 16.7412 25.8477 16.6677 27.273 16.9129C27.3222 16.9129 27.3468 16.9865 27.2976 17.0355ZM28.6983 12.4991C28.7475 12.4991 28.7721 12.5726 28.7229 12.6217C28.5263 12.7688 28.3543 12.9159 28.1577 13.063C28.1086 13.0876 28.0594 13.063 28.0594 13.014C28.0103 12.45 28.0594 12.4255 28.6983 12.4991ZM27.8382 12.1067C27.8382 12.2293 27.7399 12.3029 27.6171 12.2784C27.1993 12.1558 26.8061 12.0577 26.3884 11.9351C26.3638 11.9351 26.3392 11.886 26.3392 11.8615C26.4375 11.3466 26.6833 11.1013 26.929 10.7826C27.2485 10.3167 27.5925 9.87529 28.0103 9.45842C28.0594 9.40938 28.1331 9.45842 28.1086 9.50747C28.0348 9.92433 27.9857 10.3167 27.9365 10.7335C27.912 11.1749 27.8628 11.6408 27.8382 12.1067ZM28.1331 16.6432C28.084 16.6677 28.0348 16.6432 28.0348 16.5941V13.9213C28.0348 13.8722 28.084 13.8477 28.1086 13.8477C28.8949 14.0439 29.6567 14.2155 30.3939 14.4117C30.5168 14.4362 30.5905 14.5343 30.6151 14.6569C30.6151 14.7305 30.5905 14.8041 30.5414 14.8286C30.4677 14.8776 30.3939 14.9021 30.3448 14.9512C29.9025 15.27 28.6 16.2999 28.1331 16.6432ZM22.9971 20.9344C22.9234 20.9344 22.7268 20.8853 22.6531 20.8363C22.5057 20.7382 22.4811 20.542 22.5794 20.3949C22.6531 20.2968 22.8251 20.2233 22.8988 20.1987C23.9064 19.88 24.7911 20.0271 25.8969 20.2968C24.8648 20.8118 24.0047 20.9589 22.9971 20.9344ZM27.7645 20.3704C27.4942 20.3213 27.273 20.2723 26.8799 20.1987C27.2485 20.0026 27.4696 19.88 27.8137 19.7083C27.7891 20.0026 27.7891 20.1742 27.7645 20.3704ZM21.9405 24.6616C21.9159 24.7352 21.8667 24.7842 21.793 24.7842C21.3998 24.7106 21.0066 24.6371 20.6135 24.5635C20.5643 24.5635 20.5397 24.5145 20.5643 24.4654C20.5889 24.3428 20.6872 24.2693 20.81 24.2938C21.1787 24.3919 21.5227 24.4654 21.8913 24.5635C21.9159 24.5635 21.9405 24.6126 21.9405 24.6616ZM27.7891 26.6969C27.7891 26.7704 27.7399 26.8195 27.6662 26.8195C26.0443 26.8195 24.7173 26.0593 23.5378 25.2011C23.4886 25.1765 23.5132 25.103 23.5623 25.0785C24.8648 24.7106 26.2409 24.3183 27.6171 23.926C27.6908 23.9014 27.7891 23.975 27.7891 24.0731V26.6969ZM23.5378 30.2034C22.7268 30.3505 21.9159 30.3505 21.1541 29.9827C21.1049 29.9337 21.1541 29.8601 21.1787 29.8601C21.965 29.9582 22.7514 30.0563 23.5378 30.1298C23.5623 30.1298 23.5623 30.2034 23.5378 30.2034ZM27.7891 30.4977C27.1993 30.3751 26.6341 30.2524 26.0689 30.1544C25.9952 30.1298 25.9706 30.0318 26.0443 29.9827C26.6095 29.762 27.1502 29.5413 27.7645 29.2961V30.4977H27.7891ZM28.084 36.2602C26.8307 36.0395 25.6266 35.8678 24.447 35.5736C23.7098 35.4019 22.9971 35.0831 22.3091 34.7153C21.8913 34.4946 21.5718 34.1268 21.5227 33.5628C21.5227 33.4402 21.6456 33.3421 21.7439 33.3912C22.5302 33.7835 23.1446 34.2004 23.9801 34.2739C25.2088 34.4946 27.0027 34.1513 27.9611 34.0042C28.0103 34.8134 28.0348 35.5736 28.084 36.2602ZM14.5682 33.3666C16.4604 33.3666 18.3035 33.3666 20.1711 33.3666C20.1711 33.4402 20.1957 33.5138 20.1957 33.5628C19.2127 34.372 18.1806 35.0831 16.829 34.8379C16.0672 34.7153 15.3546 34.4946 14.5682 34.2985C14.5682 33.9552 14.5682 33.5873 14.5682 33.3666ZM14.4208 26.5988C15.8952 27.3099 17.3205 27.6532 18.8687 27.2118C18.9424 27.1873 18.967 27.2854 18.9178 27.3344C18.7458 27.5061 18.5738 27.6532 18.4018 27.8248C18.0086 28.0701 17.5417 28.2662 17.1485 28.3398C16.5342 28.4624 15.8952 28.585 15.2809 28.585C14.5682 28.585 14.4208 28.3643 14.4208 27.6042C14.4208 27.3099 14.4208 26.9911 14.4208 26.5988ZM16.3376 19.4141C17.0256 18.8991 17.7874 18.8501 18.5247 18.7029C18.5984 18.6784 18.6475 18.7765 18.5984 18.8501C18.1069 19.6102 17.2959 19.88 16.3621 19.6102C16.2638 19.5857 16.2638 19.4631 16.3376 19.4141ZM14.175 12.401C15.158 12.6462 16.141 12.8914 17.1977 13.1366C17.2714 13.1611 17.2714 13.2592 17.1977 13.2837C16.2147 13.6761 15.2317 13.8232 14.175 13.7251V12.401ZM14.1013 9.45842C15.0351 9.60555 15.9444 9.75268 16.9273 9.92433C17.0011 9.94885 17.0256 10.0715 16.9273 10.0715C15.9444 10.3657 15.0351 10.6109 14.1013 10.8807V9.45842ZM13.7327 6.44231C13.1184 5.90284 12.5777 5.43694 12.0617 4.97104C11.9879 4.89747 12.0371 4.77487 12.1354 4.79939C12.6514 4.89747 13.1675 5.02008 13.7327 5.14268V6.44231ZM13.8064 9.26225C13.2904 9.0906 12.7989 8.91896 12.3074 8.74731C12.1354 8.69827 12.16 8.42853 12.332 8.40401C12.7989 8.33045 13.2904 8.23236 13.8064 8.1588V9.26225ZM12.0617 11.4446C11.2261 11.6653 10.2923 11.1994 9.7517 10.2921C9.72713 10.2431 9.77628 10.1941 9.82543 10.2186C10.6364 10.6109 11.3244 10.9542 12.0862 11.322C12.1354 11.3466 12.1354 11.4446 12.0617 11.4446ZM13.9539 17.9918C12.8726 17.4524 11.6193 17.6976 10.6118 16.9865C10.5381 16.9374 10.5872 16.7903 10.6855 16.8148C11.7668 17.0355 12.848 17.0355 13.9539 16.5451V17.9918ZM14.0767 3.37715C14.6174 3.45072 15.0843 3.52428 15.5512 3.59784C15.6495 3.62237 15.6741 3.74497 15.6003 3.81854C15.1826 4.28444 14.814 4.43157 14.1013 4.7013C14.0522 4.72582 14.003 4.67678 14.0276 4.65226C14.0522 4.08827 14.0522 3.81854 14.0767 3.37715ZM13.9047 15.1964C12.6023 15.319 10.7101 14.4853 10.5626 13.627C10.5381 13.5535 10.6118 13.4799 10.6609 13.529C11.3244 14.0929 12.0862 13.9949 12.8235 13.9458C14.0276 13.8477 14.0767 13.9213 13.9047 15.1964ZM13.7819 3.0829C13.5361 3.0829 13.2904 3.10742 13.0446 3.10742C12.9218 3.10742 12.8235 3.00933 12.848 2.86221C12.9218 2.34726 13.3641 1.61162 13.9539 1.1212C14.0276 1.04763 14.1259 1.1212 14.1259 1.21928C14.003 1.83231 13.9047 2.42082 13.7819 3.0829ZM14.003 6.78561C14.8631 6.83465 15.6741 6.90821 16.485 6.95726C16.6325 6.98178 16.657 7.15343 16.5096 7.22699C15.7232 7.39864 14.9368 7.54577 14.0767 7.74194C14.0522 7.37412 14.0276 7.10438 14.003 6.78561ZM14.0522 22.4547C12.3811 21.6455 10.7347 20.8363 9.65341 19.1688C9.62883 19.1443 9.67798 19.0953 9.70255 19.1198C10.9804 20.1742 12.4549 20.3949 14.0276 20.1742V22.4547H14.0522ZM14.175 25.3482C14.1505 25.6425 14.175 25.9367 14.175 26.3045C12.6269 25.9858 11.2753 25.4953 10.4398 24.024C11.521 24.2447 12.5286 24.4654 13.5607 24.6126C14.0276 24.6616 14.2242 24.8333 14.175 25.3482ZM14.2488 15.6868C15.6986 15.6868 17.1239 15.6868 18.5247 15.6868C18.7458 15.6868 18.6721 15.834 18.5738 15.932C18.3035 16.1527 18.0823 16.2018 17.4434 16.3734C16.5833 16.4715 15.6986 16.496 14.814 16.496C14.1505 16.4715 14.1259 16.4225 14.2488 15.6868ZM14.1996 30.0072C13.0446 29.4678 11.9388 28.9773 10.8575 28.4624C10.7592 28.3888 10.8084 28.3153 10.8575 28.2907C11.8651 27.9474 12.8972 27.8494 13.9293 28.2662C14.0522 28.3153 14.175 28.5114 14.175 28.6586C14.2242 29.0754 14.1996 29.4678 14.1996 30.0072ZM14.2733 20.1006V18.5558C14.6911 18.8991 15.0843 19.1934 15.6003 19.6102C15.6741 19.6593 15.6495 19.7819 15.5512 19.8064C15.1089 19.929 14.7157 20.0026 14.2733 20.1006ZM10.0957 30.9636C9.99744 30.8655 10.0957 30.6938 10.2186 30.7184C11.4719 30.9145 12.7252 31.0862 13.9784 31.3069C14.1013 31.3314 14.2733 31.5521 14.2979 31.6992C14.3471 32.0425 14.3225 32.4103 14.3225 32.8762C12.7252 32.5084 11.1524 32.4103 10.0957 30.9636ZM14.3471 35.8678C14.3471 35.9414 14.2733 35.9904 14.2242 35.9659C13.0201 35.5736 11.8405 35.3774 10.8575 34.6172C10.7101 34.4456 10.8084 34.2739 10.9558 34.2739C12.0125 34.3475 13.0446 34.4211 14.1013 34.5191C14.1996 34.5191 14.3471 34.7153 14.3716 34.8134C14.3471 35.1567 14.3471 35.4755 14.3471 35.8678ZM14.3716 24.1957C14.3471 23.7543 14.3471 23.2884 14.3471 22.798H18.1315C18.2052 22.798 18.2298 22.8961 18.1806 22.9451C17.1239 24.024 16.0181 24.6126 14.6665 24.49C14.5682 24.49 14.3716 24.2938 14.3716 24.1957ZM14.4945 30.4241C15.8952 30.6203 17.2468 30.8164 18.5984 31.0371C17.4925 31.6011 16.3621 32.1161 15.0351 31.5766C14.5191 31.3314 14.3471 30.9636 14.4945 30.4241ZM5.05805 32.0915C5.50038 32.1161 5.94272 32.1651 6.38505 32.1896C6.40962 32.1896 6.4342 32.2141 6.4342 32.2632V32.3122C6.4342 32.3368 6.40962 32.3613 6.38505 32.3858C5.96729 32.4348 5.74612 32.4839 5.30379 32.4839C5.25464 32.4839 5.03347 32.4594 4.98433 32.4348C4.83688 32.3368 4.88603 32.1161 5.05805 32.0915ZM4.81231 29.4432C4.81231 29.3942 4.83688 29.3697 4.88603 29.3697C5.5741 29.4678 6.23761 29.5413 6.90111 29.6394C6.95025 29.6394 6.97483 29.7375 6.92568 29.762C6.28675 30.1789 5.59868 30.1544 4.86146 30.1544C4.83688 30.1544 4.78773 30.1298 4.78773 30.0808V29.4432H4.81231ZM5.35294 27.6042C5.37751 27.6042 5.40209 27.6042 5.40209 27.5796C5.74612 27.5061 6.38505 27.3589 6.65536 27.3344C7.07312 27.2854 7.44174 27.3835 7.83492 27.7268C7.88407 27.7758 7.8595 27.8494 7.78577 27.8494H5.37751C5.15634 27.8494 5.08262 27.7022 5.35294 27.6042ZM5.69698 26.0838C6.3359 25.9367 6.97483 25.7896 7.71205 25.6179C7.7612 25.6179 7.78577 25.667 7.7612 25.716C7.0977 26.28 6.40962 26.3045 5.72155 26.1819C5.6724 26.1574 5.6724 26.1084 5.69698 26.0838ZM4.83688 22.9942C5.35294 23.2148 5.86899 23.411 6.45877 23.6317C6.63079 23.7053 6.63079 23.9505 6.45877 24.024C5.91814 24.2447 5.40209 24.4654 4.83688 24.7106V22.9942ZM4.81231 16.8393C4.81231 16.7167 4.93518 16.6677 5.03347 16.7412C5.27922 16.9374 5.50038 17.1091 5.72155 17.2807C5.79527 17.3297 5.7707 17.4769 5.6724 17.5014C4.95975 17.6976 4.78773 17.5504 4.81231 16.8393ZM4.22253 16.0301C3.80477 15.932 3.41158 15.834 2.96925 15.7359C2.82181 15.7113 2.77266 15.4907 2.87095 15.3926C3.06755 15.1964 3.23957 15.0002 3.41158 14.8041C3.60818 14.5834 3.78019 14.3382 3.95221 14.1175L4.07508 14.0684C4.29625 13.9949 4.51742 14.1665 4.51742 14.4117V15.7849C4.54199 15.932 4.39455 16.0792 4.22253 16.0301ZM4.36997 19.0462C4.02594 18.7275 3.6819 18.4332 3.33786 18.1144C3.26414 18.0409 3.31329 17.9183 3.41158 17.9183H4.51742C4.51742 17.9428 4.51742 18.6294 4.51742 18.9727C4.51742 19.0462 4.41912 19.0953 4.36997 19.0462ZM4.51742 20.7872C4.19795 20.5911 3.92764 20.4439 3.55903 20.2233C3.95221 20.0761 4.19796 19.978 4.49284 19.8554V20.7872H4.51742ZM3.46073 22.1604C2.77266 22.5283 2.18288 22.4547 1.61767 21.8907C1.56853 21.8417 1.61767 21.7436 1.6914 21.7436C2.30575 21.8417 2.84638 21.9397 3.43616 22.0378C3.50988 22.0378 3.50988 22.1359 3.46073 22.1604ZM4.51742 33.8326C4.51742 33.8816 4.46827 33.9061 4.41912 33.8816C3.95221 33.6364 3.53445 33.4402 3.14127 33.244C2.99382 33.1705 3.04297 32.9498 3.19042 32.9498C3.60818 32.9007 4.00136 32.8517 4.4437 32.8027C4.46827 32.8027 4.51742 32.8272 4.51742 32.8762V33.8326ZM2.42862 34.9605C1.93714 35.0341 1.47023 34.9851 1.0279 34.8134C1.07704 34.6172 1.05247 34.6908 1.12619 34.4946C1.29821 34.5437 1.47023 34.5927 1.64225 34.6418C1.91256 34.7153 2.18288 34.7889 2.45319 34.8624C2.47777 34.8379 2.47777 34.936 2.42862 34.9605ZM1.93714 38.982C1.37193 39.2027 0.9296 39.0801 0.63471 38.5652C0.610136 38.5161 0.659284 38.4425 0.708433 38.4671C1.10162 38.5897 1.4948 38.7123 1.93714 38.8594C1.98629 38.8839 1.98629 38.9575 1.93714 38.982ZM3.06755 24.9804C2.96925 24.9068 3.0184 24.7352 3.14127 24.7352C3.5836 24.7842 4.02594 24.8087 4.54199 24.8578V25.9612C4.00136 25.5934 3.53445 25.2746 3.06755 24.9804ZM2.13373 26.1329C2.03543 26.0593 2.08458 25.8631 2.23203 25.8877C2.99382 26.0348 3.75562 26.2064 4.56657 26.3536C4.56657 26.5497 4.54199 26.8195 4.54199 27.0647C4.54199 27.1137 4.54199 27.3344 4.54199 27.6287C3.80477 27.1628 2.72351 26.5743 2.13373 26.1329ZM4.46827 31.7728C3.26414 31.5276 2.20745 31.0616 1.22449 30.3505C1.17534 30.3015 1.19991 30.2279 1.27364 30.2279C2.33032 30.3015 3.38701 30.3751 4.49284 30.4486C4.51742 30.4486 4.54199 30.4731 4.54199 30.5222V31.6992C4.54199 31.7482 4.51742 31.7728 4.46827 31.7728ZM4.51742 37.192C4.51742 37.2165 4.49284 37.241 4.46827 37.241C3.6819 37.192 2.89553 37.192 2.10916 36.6035C2.06001 36.5789 2.08458 36.4808 2.13373 36.4808C2.87095 36.4808 3.48531 36.4563 4.09966 36.4808C4.49284 36.5054 4.66486 36.7261 4.51742 37.192ZM4.49284 29.1245C3.31329 28.9528 2.1583 29.0754 1.05247 28.3888C1.00332 28.3643 1.0279 28.2662 1.07704 28.2662C2.10916 28.3153 3.38701 28.0455 3.87849 27.9229C3.90307 27.9229 3.92764 27.9474 3.97679 27.9474C3.97679 27.9474 4.3454 28.0701 4.51742 28.1436C4.51742 28.585 4.51742 28.9773 4.56657 29.0754C4.56657 29.0999 4.54199 29.1245 4.49284 29.1245ZM4.83688 35.5736C4.83688 35.549 4.86146 35.5245 4.9106 35.5245C5.96729 35.6716 7.02398 35.8188 8.08066 35.9414C8.10524 36.0885 8.10524 36.0885 8.12981 36.2356C7.83492 36.3828 7.51546 36.5299 7.196 36.5789C6.65536 36.6525 6.11473 36.6035 5.5741 36.5789C4.76316 36.5544 4.71401 36.5054 4.83688 35.5736ZM5.18092 39.9383C6.01644 39.8648 7.49088 39.7177 8.27726 39.6441C8.3264 39.6441 8.35098 39.6686 8.37555 39.7177V39.7912C8.37555 39.8403 8.35098 39.8893 8.30183 39.8893C7.51546 40.0119 6.09016 40.0609 5.20549 40.159C5.18092 40.0855 5.18092 40.0119 5.18092 39.9383ZM14.7402 36.4563C15.0597 36.4318 15.1089 36.6525 15.1089 36.9713C15.1089 40.6249 15.0843 44.2541 15.1089 47.9077C15.1089 48.6924 15.2317 49.5016 15.33 50.3354C15.33 50.4334 15.2563 50.5315 15.1334 50.507L14.814 50.458C14.7402 45.8234 14.6911 41.1889 14.6174 36.5789C14.6174 36.5299 14.6665 36.4563 14.7402 36.4563ZM28.4772 43.3958V40.3062C28.6492 40.3307 28.7966 40.3307 28.9441 40.3552C29.0669 40.3552 29.1407 40.4533 29.1407 40.5759V43.3958C29.1407 43.3958 29.1161 45.7499 29.1161 47.1966C29.1161 49.6488 29.239 52.1009 29.6076 54.553C29.6321 54.6266 29.5339 54.7001 29.4601 54.6756C28.256 54.3814 28.5509 54.4059 28.5017 54.0135C28.5017 51.3652 28.5017 47.9323 28.5017 45.284C28.5017 45.0878 28.4772 44.8671 28.4526 44.6709C28.4772 44.6709 28.4772 43.3958 28.4772 43.3958ZM28.428 36.7996C30.0253 37.1184 31.4506 36.3337 32.9497 35.9659C33.5149 35.8188 34.0801 35.7207 34.7436 35.5981C34.8173 35.5736 34.8419 35.6716 34.8173 35.7207C33.1954 38.1238 31.0329 38.8349 28.4526 38.6878V36.7996H28.428ZM28.2069 38.982V40.0119C26.7816 39.8403 25.3808 39.8403 24.0784 39.1291C24.0047 39.1046 24.0293 38.982 24.103 38.982H28.2069ZM36.2426 29.7865C35.9723 30.4486 35.5545 30.939 35.0139 31.2823C34.3258 31.6992 33.5886 32.0915 32.8268 32.3368C31.3278 32.8272 29.8042 33.195 28.1823 33.6609V31.0371C29.583 31.0371 31.0083 30.9636 32.409 31.0616C33.8343 31.1352 34.9647 30.326 36.1443 29.6639C36.1934 29.6149 36.2672 29.713 36.2426 29.7865Z" fill="#E4E6D9"/>
</svg>
