<svg xmlns="http://www.w3.org/2000/svg" width="0" height="0" class="hidden">

  <symbol id="telegram" viewBox="0 0 40 40">
    <g clip-path="url(#clip0_2006_538)">
      <path fill-rule="evenodd" clip-rule="evenodd"
        d="M40 20C40 31.0457 31.0457 40 20 40C8.95433 40 0 31.0457 0 20C0 8.95433 8.95433 0 20 0C31.0457 0 40 8.95433 40 20ZM13.3929 18.1679C11.3894 19.0427 9.33092 19.9415 7.44854 20.9783C6.46564 21.698 7.77198 22.2071 8.99758 22.6846C9.19242 22.7605 9.38517 22.8356 9.56642 22.9106C9.71725 22.957 9.87058 23.0058 10.026 23.0553C11.3891 23.4896 12.9089 23.9738 14.2322 23.2454C16.4061 21.9967 18.4575 20.553 20.5074 19.1104C21.179 18.6378 21.8504 18.1653 22.5259 17.6997C22.5576 17.6795 22.5933 17.6563 22.6323 17.6311C23.2078 17.258 24.502 16.4191 24.0232 17.5751C22.8912 18.8131 21.6787 19.9089 20.4596 21.0108C19.6379 21.7534 18.8132 22.4988 18.0082 23.2921C17.3072 23.8617 16.5791 25.0073 17.3642 25.8051C19.1724 27.0709 21.0089 28.3061 22.8443 29.5406C23.4416 29.9422 24.0388 30.3439 24.6348 30.7466C25.645 31.5531 27.2238 30.9007 27.4458 29.6404C27.5446 29.0607 27.6437 28.481 27.7429 27.9012C28.2909 24.6973 28.8391 21.4923 29.3233 18.2779C29.3892 17.7737 29.4637 17.2695 29.5384 16.7651C29.7193 15.5425 29.9005 14.3184 29.9571 13.0892C29.8113 11.8626 28.3239 12.1323 27.4962 12.4082C23.2419 14.027 19.0301 15.7658 14.8349 17.5353C14.3597 17.7458 13.8779 17.9562 13.3929 18.1679Z" />
    </g>
    <defs>
      <clipPath id="clip0_2006_538">
        <rect width="40" height="40" />
      </clipPath>
    </defs>
  </symbol>

  <symbol id="whatsapp" viewBox="0 0 40 40">
    <path fill-rule="evenodd" clip-rule="evenodd"
      d="M40 20C40 31.0457 31.0457 40 20 40C8.95433 40 0 31.0457 0 20C0 8.95433 8.95433 0 20 0C31.0457 0 40 8.95433 40 20ZM20.6547 31.1268H20.6596C27.2166 31.1241 32.5495 25.7899 32.5521 19.2343C32.5533 16.0566 31.3175 13.0687 29.0722 10.8209C26.8268 8.57293 23.8408 7.33438 20.6594 7.33301C14.1043 7.33301 8.76933 12.6678 8.76666 19.2248C8.76583 21.3209 9.31341 23.3668 10.3542 25.1704L8.66699 31.333L14.9714 29.6792C16.7085 30.6267 18.6642 31.1261 20.6547 31.1268ZM15.6245 27.7404L15.2636 27.5263L11.5224 28.5076L12.521 24.86L12.2859 24.486C11.2965 22.9123 10.7739 21.0934 10.7747 19.2256C10.7768 13.7756 15.2111 9.34168 20.6634 9.34168C23.3037 9.3426 25.7855 10.3721 27.6517 12.2405C29.518 14.1089 30.5452 16.5924 30.5441 19.2336C30.5419 24.6839 26.1077 29.1183 20.6596 29.1183H20.6556C18.8818 29.1176 17.1422 28.6411 15.6245 27.7404ZM26.651 22.0623C26.5912 21.9625 26.4512 21.8948 26.244 21.7947C26.1937 21.7704 26.1395 21.7442 26.0815 21.7152C25.7843 21.5664 24.3234 20.8477 24.0509 20.7484C23.7786 20.6493 23.5804 20.5998 23.3823 20.8971C23.1843 21.1945 22.6148 21.8639 22.4415 22.0623C22.2681 22.2605 22.0947 22.2854 21.7977 22.1367C21.7506 22.1131 21.6868 22.0853 21.6084 22.0513L21.6013 22.0482C21.183 21.8668 20.3577 21.5088 19.408 20.6618C18.5247 19.8738 17.9282 18.9007 17.7549 18.6032C17.5816 18.3057 17.7364 18.1449 17.8852 17.9968C17.9738 17.9085 18.0754 17.7848 18.1771 17.661L18.1787 17.6591C18.23 17.5966 18.2813 17.5341 18.3309 17.4762C18.4572 17.3288 18.5118 17.2172 18.5862 17.0654L18.5863 17.0651L18.5904 17.0568C18.6023 17.0325 18.6148 17.0071 18.6281 16.9804C18.7272 16.7821 18.6777 16.6086 18.6033 16.4599C18.5537 16.3603 18.2711 15.6725 18.0154 15.05C17.889 14.7422 17.7691 14.4503 17.6872 14.2534C17.4742 13.7418 17.2582 13.7431 17.0851 13.7441L17.0849 13.7441C17.062 13.7443 17.0398 13.7444 17.0186 13.7433C16.8454 13.7346 16.6471 13.7328 16.449 13.7328C16.2509 13.7328 15.929 13.8072 15.6566 14.1047C15.6392 14.1238 15.6197 14.1446 15.5984 14.1672C15.2889 14.4974 14.6166 15.2149 14.6166 16.5837C14.6166 18.0385 15.67 19.4442 15.8275 19.6543L15.8276 19.6544L15.8299 19.6576C15.8396 19.6705 15.8567 19.6951 15.8812 19.7302L15.882 19.7313C16.2378 20.2417 18.1205 22.9417 20.9062 24.1446C21.6152 24.4508 22.1687 24.6336 22.6002 24.7705C23.3121 24.9968 23.96 24.9649 24.4719 24.8883C25.0428 24.803 26.23 24.1695 26.4777 23.4753C26.7252 22.7812 26.7252 22.1862 26.651 22.0623Z" />
  </symbol>

  <symbol id="marker" viewBox="0 0 12 12">
    <path fill-rule="evenodd" clip-rule="evenodd"
      d="M5.84859 0.523351C5.84859 3.38648 3.52757 5.7075 0.664442 5.7075H0.664062V5.98763C0.664189 5.98763 0.664315 5.98763 0.664442 5.98763C3.52757 5.98763 5.84859 8.30865 5.84859 11.1718C5.84859 11.1718 5.84859 11.1718 5.84859 11.1719H6.15217V11.1718C6.15217 8.30878 8.47298 5.98783 11.3359 5.98763V5.7075C8.47298 5.7073 6.15217 3.38635 6.15217 0.523351L6.15222 0.5H5.84854L5.84859 0.523351Z" />
  </symbol>

  <symbol id="linked" viewBox="0 0 100 100">
    <path
      d="M100 50C100 77.6142 77.6142 100 50 100C22.3858 100 0 77.6142 0 50C0 22.3858 22.3858 0 50 0C77.6142 0 100 22.3858 100 50Z" />
    <path
      d="M100 50C100 77.6142 77.6142 100 50 100C22.3858 100 0 77.6142 0 50C0 22.3858 22.3858 0 50 0C77.6142 0 100 22.3858 100 50Z"
      fill="url(#paint0_radial_1_4195)" fill-opacity="0.2" />
    <path
      d="M84.4065 50.0465C84.4065 69.023 69.023 84.4065 50.0465 84.4065C31.07 84.4065 15.6865 69.023 15.6865 50.0465C15.6865 31.07 31.07 15.6865 50.0465 15.6865C69.023 15.6865 84.4065 31.07 84.4065 50.0465Z"
      stroke="white" stroke-opacity="0.1" />
    <path
      d="M54.3148 30.9324L36.6239 45.066L43.3274 46.7136L30.9768 56.4731L63.1533 64.3819L56.7343 50.009L63.4377 51.6567L54.3148 30.9324Z"
      stroke="white" stroke-width="2" stroke-linecap="round" stroke-linejoin="round" />
    <path d="M47.0651 60.427L45.0879 68.4711" stroke="white" stroke-width="2" stroke-linecap="round"
      stroke-linejoin="round" />
    <path
      d="M96.7153 52.0593L94.5493 51.9084L94.398 54.0869L96.5641 54.2378L96.4588 55.7541L90.6565 55.3498L90.7618 53.8336L93.1105 53.9972L93.2618 51.8187L90.9131 51.655L91.0177 50.1475L96.82 50.5517L96.7153 52.0593Z"
      fill="white" />
    <path
      d="M91.9966 62.9442C91.1582 62.7505 90.5216 62.2897 90.0866 61.5617C89.6616 60.842 89.553 60.031 89.7607 59.1288C89.9684 58.2265 90.4205 57.5451 91.1172 57.0844C91.8265 56.6208 92.6003 56.4858 93.4387 56.6794C93.8296 56.7697 94.1949 56.9318 94.5349 57.1657C94.8735 57.4053 95.1476 57.7047 95.3572 58.0639C95.7822 58.7836 95.8908 59.5945 95.6831 60.4968C95.4754 61.399 95.0233 62.0805 94.3266 62.5411C93.9811 62.7721 93.6045 62.9181 93.1966 62.9793C92.7875 63.0462 92.3875 63.0344 91.9966 62.9442ZM94.2556 60.167C94.3627 59.7017 94.3008 59.284 94.0698 58.9139C93.8445 58.5451 93.508 58.309 93.0605 58.2057C92.647 58.1102 92.2612 58.1794 91.903 58.4134C91.531 58.6562 91.2927 59.0045 91.1882 59.4585C91.0811 59.9238 91.1408 60.338 91.3675 60.7011C91.6028 61.0782 91.9301 61.3152 92.3493 61.412C92.7798 61.5115 93.1776 61.442 93.5427 61.2036C93.9161 60.9552 94.1537 60.6097 94.2556 60.167Z"
      fill="white" />
    <path
      d="M88.0296 65.1105L88.9151 62.8499L94.3294 64.9784L93.5076 67.0763C93.2973 67.613 93.0016 67.9534 92.6204 68.0976C92.2898 68.2241 91.908 68.2022 91.4751 68.0321C91.237 67.9385 91.0353 67.7997 90.87 67.6159C90.7122 67.4288 90.6289 67.2271 90.6199 67.0109C90.4685 67.3017 90.2637 67.5058 90.0053 67.6232C89.6771 67.7757 89.2992 67.7679 88.8717 67.5998C88.4279 67.4254 88.1255 67.1532 87.9644 66.7833C87.753 66.3186 87.7747 65.761 88.0296 65.1105ZM92.6987 65.9607L91.6435 65.5459L91.5415 65.8061C91.4438 66.0554 91.4306 66.2567 91.5017 66.4098C91.5544 66.5305 91.6564 66.6207 91.808 66.6803C91.9541 66.7377 92.0928 66.7422 92.2242 66.6938C92.3749 66.6279 92.4991 66.4703 92.5968 66.2209L92.6987 65.9607ZM90.5963 65.1342L89.4599 64.6875L89.3357 65.0046C89.1573 65.46 89.1167 65.7787 89.214 65.9608C89.2708 66.0708 89.3723 66.1544 89.5184 66.2119C89.6862 66.2778 89.8341 66.2828 89.9622 66.2268C90.128 66.1544 90.3011 65.8877 90.4816 65.427L90.5963 65.1342Z"
      fill="white" />
    <path
      d="M84.5821 71.9214L89.6115 74.8479L88.8495 76.1621L83.82 73.2357L84.5821 71.9214ZM87.0567 67.6537L92.0861 70.5802L91.3241 71.8945L89.3636 70.7537L88.9957 71.3882C88.5986 72.0731 88.1522 72.4834 87.6566 72.6193C87.2404 72.7341 86.8087 72.6614 86.3613 72.401C85.9139 72.1407 85.635 71.8101 85.5246 71.4091C85.3868 70.9047 85.5355 70.2773 85.9705 69.527L87.0567 67.6537ZM87.3051 69.556L87.0116 70.062C86.851 70.339 86.7918 70.5571 86.8339 70.7163C86.8719 70.8596 86.9712 70.978 87.1321 71.0716C87.293 71.1652 87.4439 71.189 87.5848 71.1431C87.7467 71.0958 87.905 70.9388 88.0597 70.6719L88.3532 70.1658L87.3051 69.556Z"
      fill="white" />
    <path
      d="M87.7977 77.5955L86.8351 78.7704L84.0041 76.443L85.4521 80.4585L84.473 81.6537L79.977 77.9574L80.9395 76.7825L83.7706 79.11L82.3225 75.0944L83.3017 73.8993L87.7977 77.5955ZM87.1826 81.4857L86.2443 82.0251C86.0362 81.6733 85.9695 81.3095 86.0441 80.9339C86.1006 80.6263 86.2782 80.2901 86.5769 79.9255C86.8646 79.5744 87.1554 79.3388 87.4492 79.2188C87.8024 79.0722 88.1716 79.0668 88.5567 79.2026L88.2116 80.2297C88.0354 80.1602 87.8708 80.1454 87.7177 80.1854C87.5647 80.2253 87.4163 80.333 87.2724 80.5086C87.1323 80.6796 87.0558 80.8465 87.0428 81.0092C87.0336 81.1673 87.0802 81.3261 87.1826 81.4857Z"
      fill="white" />
    <path
      d="M79.0733 86.6395L78.2351 85.668L79.6668 84.4285L76.7018 80.9918L77.8432 80.0037L81.6464 84.4119L79.0733 86.6395Z"
      fill="white" />
    <path
      d="M71.2962 88.4466C70.8238 87.7263 70.6814 86.9525 70.8691 86.1251C71.0583 85.3107 71.5392 84.6493 72.3117 84.1408C73.0842 83.6324 73.8811 83.4528 74.7024 83.602C75.5349 83.7578 76.1875 84.1958 76.6599 84.9161C76.8802 85.2519 77.0325 85.622 77.1169 86.0264C77.1964 86.4339 77.1881 86.8401 77.0919 87.2449C76.9026 88.0593 76.4218 88.7207 75.6493 89.2291C74.8768 89.7376 74.0799 89.9172 73.2586 89.768C72.8495 89.6958 72.4764 89.5407 72.1394 89.3026C71.7976 89.0677 71.5165 88.7824 71.2962 88.4466ZM74.8448 88.0027C75.2432 87.7405 75.4865 87.3956 75.5748 86.9682C75.6663 86.5456 75.586 86.1421 75.3338 85.7576C75.1007 85.4024 74.7741 85.1854 74.3538 85.1066C73.9174 85.0246 73.5048 85.1115 73.1161 85.3673C72.7178 85.6295 72.4752 85.9703 72.3886 86.3897C72.2986 86.8252 72.3718 87.223 72.608 87.5831C72.8506 87.953 73.1861 88.1782 73.6145 88.2586C74.0557 88.3374 74.4658 88.2521 74.8448 88.0027Z"
      fill="white" />
    <path
      d="M71.0584 91.7811L67.0567 93.6014L65.1351 89.3621L64.4999 89.651L63.476 87.3922L64.7146 86.8288L65.2554 88.0218L68.4789 86.5555L67.9381 85.3624L69.1767 84.799L70.2007 87.0579C69.9846 87.2009 69.8315 87.3985 69.7415 87.6505C69.6427 87.9256 69.6255 88.2117 69.6899 88.5086C69.7514 88.8132 69.8782 89.1776 70.0705 89.6018L71.0584 91.7811ZM69.2414 91.3221L68.6753 90.0734C68.4758 89.6333 68.3499 89.2428 68.2976 88.9021C68.2434 88.543 68.2743 88.2027 68.3904 87.8813L66.5166 88.7337L67.9551 91.9072L69.2414 91.3221Z"
      fill="white" />
    <path
      d="M59.3018 89.8618L61.6577 89.2891L63.0292 94.9512L60.8428 95.4827C60.2836 95.6186 59.8355 95.5717 59.4987 95.342C59.2054 95.1436 59.0039 94.818 58.8942 94.3653C58.8339 94.1163 58.8314 93.8712 58.8866 93.6301C58.9489 93.3932 59.0658 93.209 59.2373 93.0774C58.9127 93.1204 58.6282 93.0697 58.3839 92.9253C58.0707 92.7438 57.86 92.4294 57.7517 91.9824C57.6393 91.5183 57.6879 91.114 57.8976 90.7694C58.1558 90.3291 58.6239 90.0265 59.3018 89.8618ZM61.2897 94.1785L61.0224 93.075L60.7512 93.1409C60.4913 93.2041 60.3193 93.3088 60.2351 93.4551C60.1666 93.5676 60.1516 93.7031 60.19 93.8616C60.227 94.0144 60.303 94.1307 60.4181 94.2106C60.5585 94.2963 60.7586 94.3076 61.0185 94.2445L61.2897 94.1785ZM60.7571 91.9799L60.4692 90.7915L60.1387 90.8718C59.6642 90.9872 59.3804 91.137 59.2875 91.3214C59.2304 91.4312 59.2203 91.5625 59.2573 91.7153C59.2998 91.8907 59.3807 92.0149 59.5001 92.0877C59.6545 92.182 59.9718 92.1708 60.452 92.0541L60.7571 91.9799Z"
      fill="white" />
    <path
      d="M54.3235 96.5946L49.847 96.8197L49.5554 91.0007L51.0707 90.9244L51.2986 95.4698L52.7617 95.3962L52.6554 93.2762C52.6088 92.3456 52.7785 91.6665 53.1645 91.239C53.4904 90.8902 53.935 90.7017 54.4982 90.6734C54.7304 90.6617 54.9611 90.6763 55.1901 90.7173L55.2601 92.1131C55.1361 92.0786 55.019 92.064 54.9087 92.0696C54.6997 92.0801 54.5342 92.1467 54.4123 92.2695C54.2184 92.4658 54.1352 92.8373 54.1626 93.3841L54.3235 96.5946Z"
      fill="white" />
    <path
      d="M44.5399 96.4737L44.6387 95.1934L46.4297 95.3321L46.5043 94.3654L44.8089 94.2341L44.9077 92.9538L46.603 93.0851L46.6803 92.0835L44.8893 91.9449L44.9881 90.6646L48.2832 90.9198L47.8349 96.7288L44.5399 96.4737Z"
      fill="white" />
    <path
      d="M40.0685 94.4238L41.2874 94.6422L42.0858 90.1708L43.5708 90.4369L42.7724 94.9083L43.9913 95.1267L43.7656 96.3907L39.8428 95.6878L40.0685 94.4238Z"
      fill="white" />
    <path
      d="M33.5989 90.8027C33.8583 89.9809 34.3675 89.3819 35.1265 89.0054C35.8765 88.6383 36.6922 88.5944 37.5735 88.8735C38.4548 89.1527 39.0969 89.6584 39.4999 90.3907C39.9048 91.1359 39.9776 91.9193 39.7182 92.7411C39.5973 93.1242 39.4069 93.4762 39.1471 93.797C38.8818 94.1161 38.562 94.366 38.1879 94.5468C37.4379 94.9139 36.6223 94.9578 35.741 94.6786C34.8597 94.3995 34.2175 93.8937 33.8146 93.1614C33.6123 92.7981 33.4969 92.4103 33.4684 91.9982C33.4345 91.5843 33.478 91.1858 33.5989 90.8027ZM36.1827 93.2794C36.6372 93.4234 37.0578 93.3948 37.4444 93.1936C37.8294 92.9979 38.091 92.6807 38.2295 92.2421C38.3575 91.8367 38.3193 91.4459 38.1149 91.0697C37.9029 90.6789 37.5752 90.4132 37.1318 90.2728C36.6773 90.1288 36.2603 90.1555 35.881 90.3529C35.487 90.5579 35.2252 90.8659 35.0955 91.2768C34.9623 91.6988 34.9997 92.1015 35.2079 92.4851C35.4254 92.8777 35.7503 93.1425 36.1827 93.2794Z"
      fill="white" />
    <path
      d="M28.0052 91.2813L29.068 89.3846L27.167 88.3157L26.1042 90.2124L24.7811 89.4685L27.628 84.3877L28.9511 85.1317L27.7987 87.1884L29.6997 88.2572L30.8521 86.2006L32.1676 86.9402L29.3207 92.021L28.0052 91.2813Z"
      fill="white" />
    <path
      d="M20.2704 82.3793C20.804 81.7032 21.4923 81.3241 22.3353 81.242C23.1665 81.1654 23.9446 81.4142 24.6697 81.9885C25.3948 82.5628 25.8159 83.2638 25.9333 84.0917C26.0479 84.9323 25.8384 85.6907 25.3048 86.3668C25.056 86.682 24.7534 86.9434 24.3968 87.1509C24.0357 87.3549 23.6483 87.4749 23.2345 87.5109C22.4033 87.5875 21.6251 87.3387 20.9001 86.7644C20.175 86.1902 19.7538 85.4891 19.6365 84.6612C19.576 84.2496 19.6055 83.846 19.7249 83.4506C19.8398 83.0516 20.0216 82.6945 20.2704 82.3793ZM21.8087 85.6133C22.1826 85.9094 22.586 86.0322 23.0188 85.9815C23.4479 85.9354 23.8049 85.7319 24.0898 85.371C24.353 85.0375 24.4557 84.6586 24.3979 84.2342C24.3382 83.7934 24.1259 83.4286 23.7611 83.1396C23.3871 82.8435 22.9879 82.7202 22.5632 82.77C22.1223 82.8216 21.7684 83.0165 21.5016 83.3545C21.2276 83.7017 21.12 84.0916 21.1787 84.5241C21.243 84.9685 21.453 85.3316 21.8087 85.6133Z"
      fill="white" />
    <path
      d="M20.0591 77.9144L21.7291 79.6746L17.5131 83.6884L15.9633 82.0548C15.5668 81.6369 15.384 81.2244 15.4149 80.8174C15.4403 80.4638 15.6216 80.1266 15.9587 79.8056C16.1441 79.6291 16.3549 79.5047 16.5912 79.4325C16.8272 79.3685 17.0449 79.3781 17.2442 79.4615C17.0452 79.201 16.9473 78.9287 16.9504 78.6446C16.9514 78.2821 17.1183 77.9424 17.4512 77.6255C17.7968 77.2965 18.1709 77.1372 18.5736 77.1474C19.0834 77.1522 19.5786 77.4078 20.0591 77.9144ZM17.3146 81.7926L18.1363 81.0103L17.944 80.8077C17.7598 80.6136 17.5834 80.5164 17.4148 80.5162C17.2833 80.5128 17.1586 80.5673 17.0406 80.6797C16.9268 80.788 16.864 80.912 16.8523 81.0518C16.8481 81.2164 16.9381 81.3959 17.1223 81.59L17.3146 81.7926ZM18.9517 80.2341L19.8366 79.3916L19.6023 79.1447C19.2659 78.7901 18.9947 78.6184 18.7889 78.6296C18.6654 78.6347 18.5467 78.6914 18.433 78.7997C18.3023 78.9241 18.2352 79.0563 18.2317 79.1962C18.2271 79.3774 18.395 79.6473 18.7354 80.0061L18.9517 80.2341Z"
      fill="white" />
    <path
      d="M15.3556 71.8844L10.5782 75.2076L9.71277 73.9592L14.4902 70.636L15.3556 71.8844ZM18.1657 75.9383L13.3883 79.2615L12.5229 78.0131L14.3852 76.7176L13.9674 76.1149C13.5164 75.4644 13.3345 74.8855 13.4217 74.3782C13.4943 73.952 13.743 73.5911 14.168 73.2954C14.593 72.9998 15.0101 72.8869 15.4194 72.9567C15.9339 73.0454 16.4382 73.4462 16.9323 74.1589L18.1657 75.9383ZM16.3405 75.3575L16.0073 74.8767C15.8249 74.6137 15.6528 74.4675 15.491 74.4383C15.3454 74.4119 15.1962 74.4519 15.0434 74.5582C14.8906 74.6645 14.8051 74.7913 14.7869 74.9387C14.761 75.1056 14.836 75.3158 15.0117 75.5693L15.345 76.05L16.3405 75.3575Z"
      fill="white" />
    <path
      d="M8.8669 72.4061L8.21398 71.0341L11.52 69.4553L7.27589 69.0628L6.61171 67.6671L11.8619 65.1599L12.5149 66.5319L9.20887 68.1107L13.453 68.5032L14.1171 69.8989L8.8669 72.4061ZM5.61254 70.1958L5.5236 69.1157C5.92998 69.0765 6.28706 69.1705 6.59483 69.3977C6.84884 69.5796 7.07716 69.8835 7.27979 70.3092C7.47491 70.7193 7.56429 71.083 7.54793 71.4005C7.53035 71.7831 7.3784 72.1201 7.0921 72.4117L6.31048 71.6624C6.44814 71.5322 6.53143 71.3892 6.56036 71.2334C6.58929 71.0777 6.55497 70.8973 6.45741 70.6923C6.36235 70.4925 6.24407 70.3523 6.10257 70.2714C5.96357 70.1959 5.80023 70.1707 5.61254 70.1958Z"
      fill="white" />
    <path
      d="M4.39627 60.5844L5.63222 60.2438L6.13408 62.0715L10.5061 60.8668L10.9062 62.3239L5.29823 63.8691L4.39627 60.5844Z"
      fill="white" />
    <path
      d="M6.10549 52.8598C6.95761 52.7406 7.71662 52.9432 8.38251 53.4675C9.03608 53.9876 9.42675 54.7062 9.55453 55.6233C9.6823 56.5403 9.50297 57.3386 9.01655 58.0181C8.51941 58.705 7.84478 59.108 6.99266 59.2272C6.59539 59.2827 6.19631 59.2621 5.79542 59.1652C5.39372 59.0626 5.03092 58.8811 4.70701 58.6207C4.05344 58.1005 3.66276 57.3819 3.53499 56.4649C3.40722 55.5478 3.58654 54.7496 4.07297 54.07C4.3133 53.7307 4.61302 53.4595 4.97213 53.2564C5.33043 53.0475 5.70822 52.9153 6.10549 52.8598ZM4.9859 56.262C5.05179 56.735 5.25861 57.1029 5.60635 57.366C5.94834 57.6298 6.34675 57.7299 6.8016 57.6663C7.2219 57.6075 7.55758 57.4048 7.80862 57.058C8.06958 56.6982 8.16791 56.2875 8.10362 55.8261C8.03772 55.3532 7.83419 54.9877 7.49301 54.7296C7.1387 54.4616 6.74852 54.3574 6.32246 54.417C5.88489 54.4782 5.5381 54.6854 5.2821 55.0387C5.02195 55.4044 4.92322 55.8122 4.9859 56.262Z"
      fill="white" />
    <path
      d="M3.18042 51.044L3.26524 46.6423L7.91216 46.7321L7.92563 46.0335L10.4017 46.0813L10.3754 47.4438L9.06765 47.4185L8.99932 50.9643L10.3071 50.9896L10.2808 52.352L7.8048 52.3042C7.76905 52.0472 7.65707 51.8237 7.46885 51.6337C7.26354 51.4258 7.01328 51.287 6.71809 51.2173C6.41719 51.1415 6.03426 51.0992 5.56927 51.0902L3.18042 51.044ZM4.37696 49.5994L5.74576 49.6258C6.22818 49.6352 6.63414 49.6896 6.96365 49.7892C7.31048 49.8949 7.60365 50.0695 7.84317 50.3129L7.88288 48.2518L4.40422 48.1845L4.37696 49.5994Z"
      fill="white" />
    <path
      d="M9.95492 41.1758L9.45535 43.552L3.76391 42.3513L4.22754 40.146C4.34615 39.5819 4.58151 39.1971 4.93362 38.9917C5.23873 38.812 5.61882 38.7702 6.07391 38.8662C6.32421 38.919 6.54606 39.0224 6.73946 39.1762C6.92598 39.3346 7.04154 39.5197 7.08613 39.7314C7.18736 39.4195 7.35564 39.1842 7.59098 39.0256C7.8895 38.8208 8.26346 38.7658 8.71286 38.8606C9.17932 38.959 9.52257 39.1772 9.74261 39.5152C10.0279 39.9384 10.0987 40.4919 9.95492 41.1758ZM5.20967 41.112L6.31895 41.346L6.37645 41.0725C6.43156 40.8104 6.41136 40.6097 6.31586 40.4705C6.24401 40.3602 6.12845 40.2882 5.96917 40.2546C5.81558 40.2222 5.678 40.2407 5.55644 40.3103C5.4187 40.4003 5.32228 40.5763 5.26717 40.8385L5.20967 41.112ZM7.41969 41.5782L8.61429 41.8302L8.68438 41.4969C8.78501 41.0182 8.77231 40.6971 8.64627 40.5337C8.57203 40.4347 8.45811 40.369 8.30452 40.3366C8.12817 40.2994 7.98146 40.319 7.86439 40.3955C7.71288 40.4945 7.58621 40.7861 7.48438 41.2705L7.41969 41.5782Z"
      fill="white" />
    <path
      d="M5.92988 33.9784L7.645 29.8303L13.0186 32.0598L12.438 33.464L8.24062 31.7225L7.68004 33.0784L9.63774 33.8906C10.4971 34.2472 11.0369 34.6917 11.2571 35.2243C11.432 35.6688 11.4116 36.152 11.1958 36.6738C11.1068 36.889 10.9948 37.0915 10.8597 37.2813L9.57066 36.7465C9.65498 36.6491 9.71826 36.5493 9.76053 36.4471C9.84061 36.2534 9.85142 36.0751 9.79294 35.9121C9.69893 35.6525 9.39949 35.418 8.89462 35.2085L5.92988 33.9784Z"
      fill="white" />
    <path
      d="M10.1837 25.2217L11.2968 25.8584L10.4061 27.421L11.2466 27.9018L12.0898 26.4227L13.203 27.0594L12.3598 28.5386L13.2306 29.0367L14.1214 27.4741L15.2345 28.1109L13.5957 30.9858L8.54486 28.0966L10.1837 25.2217Z"
      fill="white" />
    <path
      d="M13.9419 22.036L13.2245 23.047L16.9204 25.6786L16.0464 26.9103L12.3505 24.2788L11.6331 25.2898L10.5883 24.5458L12.8971 21.2921L13.9419 22.036Z"
      fill="white" />
    <path
      d="M20.0193 17.6631C20.6494 18.25 20.9716 18.9676 20.9859 19.8159C20.9957 20.652 20.6859 21.4091 20.0565 22.0872C19.427 22.7653 18.6957 23.1298 17.8626 23.1807C17.0169 23.228 16.2791 22.9582 15.649 22.3713C15.3552 22.0977 15.1193 21.7746 14.9413 21.402C14.7672 21.0251 14.6787 20.6286 14.676 20.2125C14.6662 19.3764 14.976 18.6193 15.6055 17.9412C16.2349 17.2632 16.9662 16.8986 17.7993 16.8477C18.2138 16.8202 18.613 16.8819 18.9969 17.0328C19.3848 17.1794 19.7256 17.3895 20.0193 17.6631ZM16.6783 18.9406C16.3537 19.2903 16.1993 19.6832 16.2151 20.1194C16.2267 20.5516 16.4006 20.9244 16.737 21.2377C17.0478 21.5272 17.4166 21.66 17.8435 21.6362C18.2869 21.6118 18.6669 21.4291 18.9836 21.0879C19.3082 20.7382 19.4628 20.3493 19.4472 19.9214C19.4311 19.4769 19.2655 19.108 18.9505 18.8145C18.6269 18.5132 18.2476 18.3745 17.8124 18.3986C17.3651 18.4273 16.9871 18.6079 16.6783 18.9406Z"
      fill="white" />
    <path
      d="M21.9647 12.3662L23.2226 14.1391L24.9995 12.8739L23.7415 11.101L24.9783 10.2205L28.3479 14.9694L27.1112 15.85L25.7472 13.9276L23.9703 15.1928L25.3343 17.1152L24.1047 17.9907L20.7351 13.2417L21.9647 12.3662Z"
      fill="white" />
    <path
      d="M33.2048 9.17623C33.5893 9.9472 33.6398 10.7324 33.3563 11.5319C33.0727 12.3183 32.5175 12.9185 31.6906 13.3324C30.8638 13.7463 30.0513 13.8307 29.2532 13.5857C28.4448 13.3329 27.8482 12.821 27.4636 12.05C27.2843 11.6905 27.1765 11.3051 27.1402 10.8936C27.1091 10.4795 27.1651 10.0771 27.3082 9.68652C27.5918 8.90008 28.147 8.29992 28.9739 7.88603C29.8007 7.47215 30.6132 7.38771 31.4113 7.63271C31.809 7.75261 32.1612 7.95063 32.4679 8.22676C32.7798 8.50029 33.0255 8.81678 33.2048 9.17623ZM29.6287 9.19878C29.2023 9.41223 28.9201 9.72598 28.7822 10.14C28.6417 10.5489 28.6741 10.9591 28.8794 11.3706C29.0691 11.7509 29.368 12.0049 29.7762 12.1326C30.1999 12.2655 30.6198 12.2279 31.0358 12.0196C31.4622 11.8062 31.7431 11.4963 31.8784 11.0901C32.0189 10.6682 31.993 10.2645 31.8007 9.87905C31.6032 9.48314 31.2965 9.22003 30.8805 9.08971C30.4516 8.95938 30.0343 8.99574 29.6287 9.19878Z"
      fill="white" />
    <path
      d="M37.348 10.8656L35.045 11.624L33.2287 6.08895L35.366 5.38518C35.9127 5.20514 36.3631 5.21623 36.7171 5.41844C37.0252 5.59283 37.2519 5.90131 37.3971 6.3439C37.477 6.58731 37.4989 6.83141 37.463 7.07619C37.4197 7.31725 37.3178 7.51019 37.1572 7.65501C37.4774 7.58636 37.765 7.61426 38.02 7.73871C38.3466 7.89477 38.5816 8.19132 38.725 8.62836C38.8739 9.08201 38.8575 9.48893 38.6758 9.84911C38.4533 10.3086 38.0107 10.6474 37.348 10.8656ZM35.024 6.72073L35.378 7.79952L35.6431 7.71223C35.8972 7.62857 36.0603 7.51047 36.1327 7.35793C36.192 7.24031 36.1962 7.10406 36.1454 6.94915C36.0964 6.79978 36.0114 6.68986 35.8903 6.61937C35.7436 6.5451 35.5432 6.54978 35.2891 6.63344L35.024 6.72073ZM35.7293 8.87001L36.1105 10.0318L36.4336 9.9254C36.8975 9.77264 37.1685 9.60066 37.2465 9.40947C37.2947 9.29549 37.2944 9.16382 37.2453 9.01445C37.1891 8.84295 37.0986 8.72563 36.9738 8.6625C36.8124 8.58079 36.4969 8.61723 36.0275 8.77181L35.7293 8.87001Z"
      fill="white" />
    <path
      d="M44.7072 9.1849L43.7489 3.43814L45.2454 3.18771L46.2037 8.93448L44.7072 9.1849ZM39.8477 9.99806L38.8894 4.2513L40.3859 4.00087L40.7595 6.24099L41.482 6.1201C42.2618 5.98961 42.862 6.0722 43.2826 6.36787C43.6363 6.6157 43.8558 6.99522 43.941 7.50643C44.0263 8.01763 43.95 8.44369 43.7121 8.7846C43.4122 9.21266 42.8351 9.49817 41.9807 9.64113L39.8477 9.99806ZM41.1517 8.59311L41.728 8.49669C42.0433 8.44391 42.2488 8.35049 42.3443 8.21643C42.4303 8.09577 42.4579 7.94353 42.4273 7.75973C42.3966 7.57593 42.3187 7.44432 42.1935 7.3649C42.0539 7.27017 41.8322 7.24823 41.5283 7.29909L40.952 7.39551L41.1517 8.59311Z"
      fill="white" />
    <path
      d="M47.2349 3.05163L48.7521 3.05163V6.72042L50.9322 3.05163H52.4756V8.87802H50.9583V5.20923L48.7783 8.87802H47.2349V3.05163ZM50.627 1.06001L51.6385 1.44435C51.499 1.8287 51.2606 2.11114 50.9234 2.29167C50.6502 2.44308 50.2782 2.51879 49.8073 2.51879C49.3538 2.51879 48.9876 2.44308 48.7085 2.29167C48.3714 2.11114 48.133 1.8287 47.9935 1.44435L49.005 1.06001C49.0632 1.24053 49.1562 1.37738 49.2841 1.47056C49.412 1.56374 49.5893 1.61032 49.816 1.61032C50.0369 1.61032 50.2142 1.56374 50.3479 1.47056C50.4758 1.37738 50.5688 1.24053 50.627 1.06001Z"
      fill="white" />
    <path
      d="M59.8638 4.06472L59.6429 5.32959L57.779 5.00297L56.9977 9.47734L55.5117 9.21695L56.5139 3.47771L59.8638 4.06472Z"
      fill="white" />
    <path
      d="M65.9813 8.8692C65.725 9.69194 65.218 10.293 64.4604 10.6723C63.7118 11.0422 62.8963 11.0893 62.014 10.8134C61.1316 10.5376 60.4876 10.0343 60.0819 9.30351C59.6741 8.55989 59.5984 7.77671 59.8547 6.95397C59.9742 6.57039 60.1632 6.21771 60.4218 5.89591C60.686 5.57585 61.0047 5.32473 61.3782 5.14255C62.1268 4.77262 62.9422 4.72557 63.8246 5.00141C64.7069 5.27724 65.351 5.78054 65.7567 6.51131C65.9604 6.87392 66.0772 7.26122 66.1072 7.67323C66.1427 8.08697 66.1008 8.48562 65.9813 8.8692ZM63.3882 6.40229C62.9331 6.26004 62.5126 6.29026 62.1267 6.49294C61.7426 6.69007 61.4821 7.00822 61.3453 7.44738C61.2188 7.8532 61.2585 8.24383 61.4643 8.61929C61.6778 9.00933 62.0064 9.27375 62.4504 9.41253C62.9055 9.55479 63.3223 9.52648 63.7009 9.32762C64.0941 9.12111 64.3548 8.81217 64.4829 8.4008C64.6145 7.97831 64.5756 7.57569 64.3659 7.19294C64.1469 6.80116 63.821 6.53761 63.3882 6.40229Z"
      fill="white" />
    <path
      d="M68.7794 6.93637L72.7181 8.88966L70.656 13.0622L71.2812 13.3722L70.1824 15.5955L68.9633 14.9909L69.5436 13.8167L66.3708 12.2432L65.7905 13.4174L64.5714 12.8128L65.6701 10.5896C65.9174 10.6667 66.167 10.6605 66.4188 10.571C66.694 10.4735 66.926 10.3059 67.1149 10.0682C67.3115 9.82782 67.513 9.49887 67.7193 9.08135L68.7794 6.93637ZM69.5739 8.63647L68.9665 9.86553C68.7524 10.2987 68.5302 10.6434 68.2998 10.8995C68.0565 11.1687 67.7738 11.36 67.4519 11.4732L69.2962 12.3878L70.8399 9.26432L69.5739 8.63647Z"
      fill="white" />
    <path
      d="M74.7727 17.2458L72.8387 15.7817L76.3454 11.1334L78.1402 12.4922C78.5994 12.8397 78.8468 13.2168 78.8826 13.6235C78.915 13.9765 78.791 14.3388 78.5106 14.7105C78.3564 14.9149 78.1687 15.0721 77.9473 15.1819C77.7249 15.2836 77.5085 15.3096 77.2983 15.2599C77.537 15.4844 77.6779 15.7371 77.7211 16.0179C77.7791 16.3757 77.6696 16.7381 77.3927 17.1051C77.1053 17.4861 76.7621 17.7044 76.3631 17.76C75.8594 17.8385 75.3292 17.6672 74.7727 17.2458ZM76.8497 12.9714L76.1662 13.8773L76.3888 14.0459C76.6022 14.2074 76.792 14.2745 76.9584 14.2471C77.0887 14.229 77.2029 14.1548 77.301 14.0247C77.3957 13.8993 77.4374 13.7667 77.4263 13.6269C77.4036 13.4637 77.2856 13.3014 77.0723 13.1399L76.8497 12.9714ZM75.488 14.7764L74.752 15.752L75.0233 15.9574C75.4129 16.2523 75.7083 16.3775 75.9096 16.3328C76.0306 16.3076 76.1385 16.2323 76.2331 16.1068C76.3417 15.9628 76.3864 15.8215 76.3672 15.6828C76.3423 15.5033 76.1327 15.2644 75.7384 14.966L75.488 14.7764Z"
      fill="white" />
    <path
      d="M83.1206 16.7714L86.1367 20.0926L81.8344 24.0133L80.8134 22.889L84.174 19.8265L83.1881 18.7409L81.6207 20.1693C80.9327 20.7963 80.3012 21.0962 79.7264 21.069C79.2505 21.0382 78.8228 20.8139 78.4433 20.3961C78.2868 20.2238 78.1517 20.036 78.0378 19.8327L79.0699 18.8922C79.1219 19.0101 79.1851 19.11 79.2594 19.1918C79.4003 19.3469 79.5567 19.4326 79.7288 19.449C80.0033 19.4744 80.3427 19.3029 80.7469 18.9345L83.1206 16.7714Z"
      fill="white" />
    <path
      d="M89.1955 24.306L88.148 25.0461L87.1126 23.5756L86.3216 24.1344L87.3017 25.5264L86.2542 26.2665L85.2741 24.8745L84.4546 25.4535L85.49 26.924L84.4425 27.6641L82.5376 24.9587L87.2906 21.6005L89.1955 24.306Z"
      fill="white" />
    <path
      d="M90.4915 29.0767L89.8815 27.9973L85.9356 30.2352L85.1923 28.9201L89.1382 26.6823L88.5282 25.6028L89.6437 24.9702L91.607 28.4441L90.4915 29.0767Z"
      fill="white" />
    <path
      d="M91.8182 36.3135C91.0208 36.6374 90.2354 36.6265 89.4619 36.2808C88.7014 35.9362 88.1475 35.3348 87.8002 34.4767C87.4529 33.6186 87.4323 32.8006 87.7385 32.0228C88.0533 31.2351 88.6093 30.6793 89.4067 30.3555C89.7784 30.2045 90.1704 30.127 90.5828 30.1229C90.9974 30.1242 91.3934 30.2115 91.771 30.385C92.5315 30.7296 93.0854 31.331 93.4327 32.1891C93.78 33.0471 93.8006 33.8651 93.4944 34.643C93.344 35.0309 93.1194 35.3671 92.8206 35.6519C92.524 35.942 92.1899 36.1626 91.8182 36.3135ZM92.0751 32.7405C91.896 32.2979 91.6058 31.9916 91.2045 31.8216C90.8086 31.6493 90.3978 31.6496 89.9722 31.8225C89.5789 31.9822 89.3028 32.2609 89.1438 32.6585C88.9784 33.0713 88.9831 33.4936 89.1578 33.9253C89.3369 34.3678 89.6233 34.6725 90.0171 34.8394C90.4259 35.0127 90.8297 35.0183 91.2284 34.8564C91.6378 34.6901 91.9236 34.4044 92.0858 33.9992C92.249 33.581 92.2455 33.1614 92.0751 32.7405Z"
      fill="white" />
    <defs>
      <radialGradient id="paint0_radial_1_4195" cx="0" cy="0" r="1" gradientUnits="userSpaceOnUse"
        gradientTransform="translate(50 50) rotate(90) scale(50)">
        <stop stop-color="white" />
        <stop offset="1" stop-color="#F14D44" />
      </radialGradient>
    </defs>
  </symbol>

  <symbol id="arrow-down" viewBox="0 0 18 24" fill="none">
    <path d="M17.4145 0.830078L9.12178 9.12276L0.829102 0.830078" stroke="#D9D9D9"
      stroke-linecap="round" stroke-linejoin="round" />
    <path d="M17.4145 14.6504L9.12178 22.9431L0.829102 14.6504" stroke="#D9D9D9"
      stroke-linecap="round" stroke-linejoin="round" />
  </symbol>

  <svg id="burger" viewBox="0 0 27 11">
    <rect width="27" height="2" fill="#F6EEDA" />
    <rect y="9" width="27" height="2" fill="#F6EEDA" />
  </svg>

</svg>