<svg width="40" height="40" viewBox="0 0 40 40" fill="none" xmlns="http://www.w3.org/2000/svg">
<path fill-rule="evenodd" clip-rule="evenodd" d="M40 20C40 31.0457 31.0457 40 20 40C8.95433 40 0 31.0457 0 20C0 8.95433 8.95433 0 20 0C31.0457 0 40 8.95433 40 20ZM20.6547 31.1268H20.6596C27.2166 31.1241 32.5495 25.7899 32.5521 19.2343C32.5533 16.0566 31.3175 13.0687 29.0722 10.8209C26.8268 8.57293 23.8408 7.33438 20.6594 7.33301C14.1043 7.33301 8.76933 12.6678 8.76666 19.2248C8.76583 21.3209 9.31341 23.3668 10.3542 25.1704L8.66699 31.333L14.9714 29.6792C16.7085 30.6267 18.6642 31.1261 20.6547 31.1268ZM15.6245 27.7404L15.2636 27.5263L11.5224 28.5076L12.521 24.86L12.2859 24.486C11.2965 22.9123 10.7739 21.0934 10.7747 19.2256C10.7768 13.7756 15.2111 9.34168 20.6634 9.34168C23.3037 9.3426 25.7855 10.3721 27.6517 12.2405C29.518 14.1089 30.5452 16.5924 30.5441 19.2336C30.5419 24.6839 26.1077 29.1183 20.6596 29.1183H20.6556C18.8818 29.1176 17.1422 28.6411 15.6245 27.7404ZM26.651 22.0623C26.5912 21.9625 26.4512 21.8948 26.244 21.7947C26.1937 21.7704 26.1395 21.7442 26.0815 21.7152C25.7843 21.5664 24.3234 20.8477 24.0509 20.7484C23.7786 20.6493 23.5804 20.5998 23.3823 20.8971C23.1843 21.1945 22.6148 21.8639 22.4415 22.0623C22.2681 22.2605 22.0947 22.2854 21.7977 22.1367C21.7506 22.1131 21.6868 22.0853 21.6084 22.0513L21.6013 22.0482C21.183 21.8668 20.3577 21.5088 19.408 20.6618C18.5247 19.8738 17.9282 18.9007 17.7549 18.6032C17.5816 18.3057 17.7364 18.1449 17.8852 17.9968C17.9738 17.9085 18.0754 17.7848 18.1771 17.661L18.1787 17.6591C18.23 17.5966 18.2813 17.5341 18.3309 17.4762C18.4572 17.3288 18.5118 17.2172 18.5862 17.0654L18.5863 17.0651L18.5904 17.0568C18.6023 17.0325 18.6148 17.0071 18.6281 16.9804C18.7272 16.7821 18.6777 16.6086 18.6033 16.4599C18.5537 16.3603 18.2711 15.6725 18.0154 15.05C17.889 14.7422 17.7691 14.4503 17.6872 14.2534C17.4742 13.7418 17.2582 13.7431 17.0851 13.7441L17.0849 13.7441C17.062 13.7443 17.0398 13.7444 17.0186 13.7433C16.8454 13.7346 16.6471 13.7328 16.449 13.7328C16.2509 13.7328 15.929 13.8072 15.6566 14.1047C15.6392 14.1238 15.6197 14.1446 15.5984 14.1672C15.2889 14.4974 14.6166 15.2149 14.6166 16.5837C14.6166 18.0385 15.67 19.4442 15.8275 19.6543L15.8276 19.6544L15.8299 19.6576C15.8396 19.6705 15.8567 19.6951 15.8812 19.7302L15.882 19.7313C16.2378 20.2417 18.1205 22.9417 20.9062 24.1446C21.6152 24.4508 22.1687 24.6336 22.6002 24.7705C23.3121 24.9968 23.96 24.9649 24.4719 24.8883C25.0428 24.803 26.23 24.1695 26.4777 23.4753C26.7252 22.7812 26.7252 22.1862 26.651 22.0623Z" fill="white"/>
</svg>